# Blender v3.1.2 OBJ File: ''
# www.blender.org
mtllib arm_grab_middle.mtl
o Shiny_Snaget_(2)_Shiny_Snaget_(2).001
v -0.700000 8.171600 -0.499999
v 0.700000 8.168400 -0.499999
v -0.318900 7.321600 -0.499999
v -0.381100 9.020000 -0.499999
v 0.318900 9.018400 -0.499999
v 0.381100 7.320000 -0.499999
v 0.381100 7.320000 0.500001
v -0.318900 7.321600 0.500001
v -0.381100 9.020000 0.500001
v -0.700000 8.171600 0.500001
v 0.318900 9.018400 0.500001
v 0.700000 8.168400 0.500001
vn 0.0000 0.0000 -1.0000
vn -0.0023 -1.0000 0.0000
vn 0.0000 -0.0000 1.0000
vn 0.9361 -0.3518 0.0000
vn 0.9125 0.4091 0.0000
vn 0.0023 1.0000 0.0000
vn -0.9361 0.3518 0.0000
vn -0.9125 -0.4091 0.0000
usemtl Default_OBJ.005
s 1
f 1//1 2//1 3//1
f 4//1 5//1 1//1
f 2//1 1//1 5//1
f 6//1 3//1 2//1
f 7//2 8//2 3//2
f 7//2 3//2 6//2
f 9//3 10//3 11//3
f 12//3 11//3 10//3
f 12//3 10//3 8//3
f 12//3 8//3 7//3
f 2//4 12//4 7//4
f 2//4 7//4 6//4
f 5//5 11//5 12//5
f 5//5 12//5 2//5
f 4//6 9//6 11//6
f 4//6 11//6 5//6
f 1//7 10//7 9//7
f 1//7 9//7 4//7
f 10//8 1//8 3//8
f 10//8 3//8 8//8
