# Blender v3.1.2 OBJ File: ''
# www.blender.org
mtllib arm_stick.mtl
o Shiny_Snaget_(1)_Shiny_Snaget_(1).001
v -0.242700 9.020000 -0.176299
v -0.176300 9.020000 -0.242699
v -0.285300 9.020000 -0.092699
v -0.300000 9.020000 0.000001
v -0.092700 9.020000 -0.285299
v 0.000000 9.020000 -0.299999
v 0.092700 9.020000 -0.285299
v 0.176300 9.020000 -0.242699
v -0.285300 9.020000 0.092701
v 0.242700 9.020000 -0.176299
v 0.285300 9.020000 -0.092699
v -0.242700 9.020000 0.176301
v 0.300000 9.020000 0.000001
v -0.176300 9.020000 0.242701
v 0.285300 9.020000 0.092701
v 0.242700 9.020000 0.176301
v -0.092700 9.020000 0.285301
v 0.000000 9.020000 0.300001
v 0.176300 9.020000 0.242701
v 0.092700 9.020000 0.285301
v -0.242700 19.020000 -0.176297
v 0.285300 19.020000 0.092703
v -0.176300 19.020000 -0.242697
v 0.300000 19.020000 0.000003
v 0.285300 19.020000 -0.092697
v -0.285300 19.020000 -0.092697
v -0.300000 19.020000 0.000003
v 0.242700 19.020000 -0.176297
v -0.092700 19.020000 -0.285297
v 0.000000 19.020000 -0.299997
v 0.176300 19.020000 -0.242697
v 0.092700 19.020000 -0.285297
v -0.285300 19.020000 0.092703
v -0.242700 19.020000 0.176303
v -0.176300 19.020000 0.242703
v -0.092700 19.020000 0.285303
v 0.000000 19.020000 0.300003
v 0.092700 19.020000 0.285303
v 0.176300 19.020000 0.242703
v 0.242700 19.020000 0.176303
vn 0.0000 -1.0000 -0.0000
vn 0.0000 1.0000 0.0000
vn 0.0000 1.0000 0.0001
vn 0.0000 1.0000 -0.0001
vn -0.9877 -0.0000 0.1566
vn -0.8910 -0.0000 0.4540
vn 0.9877 0.0000 -0.1566
vn 0.4540 0.0000 -0.8910
vn 0.9877 -0.0000 0.1566
vn 0.1566 0.0000 -0.9877
vn 0.1566 -0.0000 0.9877
vn 0.4540 -0.0000 0.8910
vn 0.8910 -0.0000 0.4540
vn 0.8910 0.0000 -0.4540
vn 0.7071 0.0000 -0.7071
vn -0.1566 0.0000 -0.9877
vn -0.4540 0.0000 -0.8910
vn -0.7071 0.0000 -0.7071
vn -0.8910 0.0000 -0.4540
vn -0.9877 0.0000 -0.1566
vn 0.7071 -0.0000 0.7071
vn -0.7071 -0.0000 0.7071
vn -0.4540 -0.0000 0.8910
vn -0.1566 -0.0000 0.9877
usemtl Default_OBJ.007
s 1
f 1//1 2//1 3//1
f 4//1 3//1 2//1
f 4//1 2//1 5//1
f 4//1 5//1 6//1
f 4//1 6//1 7//1
f 8//1 9//1 7//1
f 10//1 9//1 8//1
f 11//1 12//1 10//1
f 13//1 14//1 11//1
f 12//1 11//1 14//1
f 13//1 15//1 14//1
f 9//1 10//1 12//1
f 4//1 7//1 9//1
f 15//1 16//1 14//1
f 17//1 14//1 16//1
f 18//1 17//1 16//1
f 19//1 20//1 16//1
f 18//1 16//1 20//1
f 21//2 22//2 23//2
f 24//2 25//2 23//2
f 26//2 22//2 21//2
f 27//2 22//2 26//2
f 25//2 28//2 23//2
f 29//2 23//2 28//2
f 30//3 29//2 28//2
f 31//2 32//2 28//2
f 30//3 28//2 32//2
f 24//2 23//2 22//2
f 22//2 27//2 33//2
f 22//2 33//2 34//2
f 22//2 34//2 35//2
f 22//2 35//2 36//2
f 22//2 36//2 37//2
f 22//2 37//2 38//2
f 22//2 38//2 39//4
f 22//2 39//4 40//2
f 33//5 4//5 9//5
f 9//6 34//6 33//6
f 13//7 25//7 24//7
f 8//8 32//8 31//8
f 24//9 15//9 13//9
f 32//10 7//10 6//10
f 37//11 18//11 20//11
f 37//11 20//11 38//11
f 20//12 39//12 38//12
f 22//13 40//13 15//13
f 25//14 11//14 10//14
f 31//15 10//15 8//15
f 29//16 6//16 5//16
f 5//17 23//17 29//17
f 8//8 7//8 32//8
f 1//18 21//18 23//18
f 1//19 26//19 21//19
f 23//17 5//17 2//17
f 26//20 3//20 4//20
f 23//18 2//18 1//18
f 39//21 19//21 16//21
f 26//19 1//19 3//19
f 39//12 20//12 19//12
f 32//10 6//10 30//10
f 34//6 9//6 12//6
f 30//16 6//16 29//16
f 12//22 14//22 34//22
f 26//20 4//20 27//20
f 16//21 40//21 39//21
f 16//13 15//13 40//13
f 15//9 24//9 22//9
f 27//5 4//5 33//5
f 36//23 14//23 17//23
f 10//14 28//14 25//14
f 14//22 35//22 34//22
f 14//23 36//23 35//23
f 17//24 18//24 36//24
f 37//24 36//24 18//24
f 31//15 28//15 10//15
f 25//7 13//7 11//7
