# Blender v3.1.2 OBJ File: ''
# www.blender.org
mtllib belt.mtl
o Shiny_Snaget_(6)_Shiny_Snaget_(6).002
v -20.100000 0.000000 -1.500000
v -20.100000 -2.000000 -1.500000
v -20.100000 -2.000000 1.500000
v -20.100000 -0.000000 1.500000
v 19.900000 0.000000 -1.500000
v 19.900000 -0.000000 1.500000
v 21.000000 -1.000000 -1.500000
v 20.946201 -1.309000 -1.500000
v 20.946201 -0.691000 -1.500000
v 20.789900 -0.412200 -1.500000
v 20.789900 -1.587800 -1.500000
v 20.546600 -0.191000 -1.500000
v 20.546600 -1.809000 -1.500000
v 20.239901 -1.951100 -1.500000
v 20.239901 -0.048900 -1.500000
v 19.900000 -2.000000 -1.500000
v 19.900000 -2.000000 1.500000
v 20.239901 -1.951100 1.500000
v 20.546600 -0.191000 1.500000
v 20.239901 -0.048900 1.500000
v 20.946201 -1.309000 1.500000
v 20.546600 -1.809000 1.500000
v 20.789900 -0.412200 1.500000
v 20.789900 -1.587800 1.500000
v 20.946201 -0.691000 1.500000
v 21.000000 -1.000000 1.500000
vn -1.0000 0.0000 0.0000
vn 0.0000 1.0000 0.0000
vn 0.0000 0.0000 -1.0000
vn 0.1424 -0.9898 -0.0000
vn 0.4204 0.9073 0.0000
vn 0.8723 -0.4890 -0.0000
vn 0.1424 0.9898 0.0000
vn 0.4204 -0.9073 -0.0000
vn 0.9852 -0.1715 -0.0000
vn -0.0000 -0.0000 1.0000
vn 0.8723 0.4890 0.0000
vn 0.0000 -1.0000 -0.0000
vn 0.6727 -0.7399 -0.0000
vn 0.6727 0.7399 0.0000
vn 0.9852 0.1715 0.0000
usemtl Default_OBJ.019
s 1
f 1//1 2//1 3//1
f 1//1 3//1 4//1
f 5//2 1//2 6//2
f 4//2 6//2 1//2
f 7//3 8//3 9//3
f 10//3 9//3 8//3
f 8//3 11//3 10//3
f 12//3 10//3 11//3
f 11//3 13//3 12//3
f 13//3 14//3 12//3
f 15//3 12//3 14//3
f 5//3 15//3 14//3
f 5//3 14//3 16//3
f 17//4 16//4 14//4
f 17//4 14//4 18//4
f 5//3 16//3 2//3
f 5//3 2//3 1//3
f 19//5 15//5 20//5
f 11//6 8//6 21//6
f 15//7 6//7 20//7
f 14//8 13//8 18//8
f 8//9 7//9 21//9
f 18//10 22//10 19//10
f 19//10 20//10 18//10
f 20//10 6//10 18//10
f 17//10 18//10 6//10
f 23//10 19//10 22//10
f 22//10 24//10 23//10
f 25//10 23//10 24//10
f 24//10 21//10 25//10
f 26//10 25//10 21//10
f 23//11 9//11 10//11
f 4//10 3//10 6//10
f 17//10 6//10 3//10
f 3//12 2//12 17//12
f 16//12 17//12 2//12
f 22//13 13//13 24//13
f 11//13 24//13 13//13
f 19//14 23//14 12//14
f 10//14 12//14 23//14
f 12//5 15//5 19//5
f 21//6 24//6 11//6
f 6//7 15//7 5//7
f 7//9 26//9 21//9
f 13//8 22//8 18//8
f 9//15 25//15 26//15
f 9//15 26//15 7//15
f 23//11 25//11 9//11
