# Blender v3.1.2 OBJ File: ''
# www.blender.org
mtllib heart.mtl
o Shiny_Snaget_(2)
v 0.368900 1.777100 0.300000
v 0.335400 1.793600 0.300000
v 0.335400 1.793600 0.600000
v 0.368900 1.777100 0.600000
v 0.355500 1.610500 0.300000
v 0.355500 1.610500 0.600000
v 0.325200 1.584300 0.600000
v 0.325200 1.584300 0.300000
v 0.153100 1.792500 0.300000
v 0.007300 1.660600 0.300000
v 0.135100 1.797900 0.300000
v 0.168800 1.784700 0.300000
v 0.181800 1.775900 0.300000
v 0.191600 1.767000 0.300000
v 0.197800 1.759300 0.300000
v 0.200000 1.753800 0.300000
v 0.115300 1.800000 0.300000
v 0.284700 1.800000 0.300000
v 0.284700 1.800000 0.600000
v 0.021700 1.635900 0.300000
v 0.044500 1.610500 0.300000
v 0.044500 1.610500 0.600000
v 0.021700 1.635900 0.600000
v 0.074800 1.584300 0.300000
v 0.074800 1.584300 0.600000
v 0.111400 1.557200 0.300000
v 0.111400 1.557200 0.600000
v 0.153500 1.529100 0.300000
v 0.153500 1.529100 0.600000
v 0.388500 1.754600 0.600000
v 0.397700 1.730000 0.600000
v 0.400000 1.707500 0.600000
v 0.264900 1.797900 0.600000
v 0.397700 1.684600 0.600000
v 0.246900 1.792500 0.600000
v 0.231200 1.784700 0.600000
v 0.218200 1.775900 0.600000
v 0.208400 1.767000 0.600000
v 0.202200 1.759300 0.600000
v 0.398800 1.691000 0.600000
v 0.200000 1.500000 0.300000
v 0.200000 1.500000 0.600000
v 0.264900 1.797900 0.300000
v 0.378300 1.635900 0.300000
v 0.378300 1.635900 0.600000
v 0.031100 1.777100 0.300000
v 0.064600 1.793600 0.300000
v 0.011500 1.754600 0.300000
v 0.002300 1.730000 0.300000
v 0.000000 1.707500 0.300000
v 0.001200 1.691000 0.300000
v 0.002300 1.684600 0.300000
v 0.392700 1.660600 0.600000
v 0.200000 1.753800 0.600000
v 0.288600 1.557200 0.600000
v 0.208400 1.767000 0.300000
v 0.202200 1.759300 0.300000
v 0.288600 1.557200 0.300000
v 0.246500 1.529100 0.300000
v 0.392700 1.660600 0.300000
v 0.197800 1.759300 0.600000
v 0.191600 1.767000 0.600000
v 0.397700 1.684600 0.300000
v 0.181800 1.775900 0.600000
v 0.064600 1.793600 0.600000
v 0.246500 1.529100 0.600000
v 0.115300 1.800000 0.600000
v 0.168800 1.784700 0.600000
v 0.153100 1.792500 0.600000
v 0.135100 1.797900 0.600000
v 0.398800 1.691000 0.300000
v 0.400000 1.707500 0.300000
v 0.397700 1.730000 0.300000
v 0.388500 1.754600 0.300000
v 0.007300 1.660600 0.600000
v 0.002300 1.684600 0.600000
v 0.001200 1.691000 0.600000
v 0.000000 1.707500 0.600000
v 0.031100 1.777100 0.600000
v 0.011500 1.754600 0.600000
v 0.002300 1.730000 0.600000
v 0.218200 1.775900 0.300000
v 0.231200 1.784700 0.300000
v 0.246900 1.792500 0.300000
vn 0.4418 0.8971 0.0000
vn 0.6541 -0.7564 0.0000
vn 0.0000 0.0000 -1.0000
vn 0.1252 0.9921 0.0000
vn -0.7442 -0.6680 0.0000
vn -0.6541 -0.7564 0.0000
vn -0.5951 -0.8037 -0.0000
vn -0.5552 -0.8317 -0.0000
vn 0.0000 0.0000 1.0000
vn -0.5305 -0.8477 -0.0000
vn -0.1055 0.9944 0.0000
vn 0.7442 -0.6680 0.0000
vn 0.8639 -0.5037 -0.0000
vn -0.7789 0.6272 0.0000
vn -0.9285 0.3714 0.0000
vn 0.7789 0.6272 0.0000
vn 0.9790 -0.2040 -0.0000
vn 0.6723 0.7403 0.0000
vn 0.9855 -0.1694 0.0000
vn 0.5606 0.8281 0.0000
vn 0.9974 -0.0725 -0.0000
vn 0.4449 0.8956 0.0000
vn 0.9948 0.1017 0.0000
vn 0.2873 0.9578 0.0000
vn 0.9366 0.3503 0.0000
vn 0.1055 0.9944 0.0000
vn 0.7540 0.6568 0.0000
vn -0.1252 0.9921 0.0000
vn -0.4418 0.8971 0.0000
vn -0.7540 0.6568 0.0000
vn 0.9285 0.3714 0.0000
vn -0.9974 -0.0725 0.0000
vn -0.9855 -0.1694 0.0000
vn -0.2873 0.9578 0.0000
vn -0.4449 0.8956 0.0000
vn -0.5606 0.8281 0.0000
vn -0.6723 0.7403 0.0000
vn -0.9366 0.3503 0.0000
vn -0.8639 -0.5037 0.0000
vn -0.9948 0.1017 0.0000
vn 0.5305 -0.8477 -0.0000
vn 0.5552 -0.8317 -0.0000
vn 0.5951 -0.8037 -0.0000
vn -0.9790 -0.2040 -0.0000
usemtl Default_OBJ.024
s 1
f 1//1 2//1 3//1
f 1//1 3//1 4//1
f 5//2 6//2 7//2
f 5//2 7//2 8//2
f 9//3 10//3 11//3
f 12//3 10//3 9//3
f 13//3 10//3 12//3
f 14//3 10//3 13//3
f 15//3 10//3 14//3
f 16//3 10//3 15//3
f 17//3 11//3 10//3
f 2//4 18//4 19//4
f 2//4 19//4 3//4
f 20//5 21//5 22//5
f 20//5 22//5 23//5
f 24//6 25//6 22//6
f 24//6 22//6 21//6
f 26//7 27//7 25//7
f 26//7 25//7 24//7
f 28//8 29//8 27//8
f 28//8 27//8 26//8
f 4//9 3//9 30//9
f 31//9 30//9 3//9
f 32//9 31//9 3//9
f 32//9 3//9 19//9
f 33//9 34//9 19//9
f 35//9 34//9 33//9
f 36//9 34//9 35//9
f 37//9 34//9 36//9
f 38//9 34//9 37//9
f 39//9 34//9 38//9
f 32//9 19//9 40//9
f 41//10 42//10 29//10
f 41//10 29//10 28//10
f 18//11 43//11 33//11
f 18//11 33//11 19//11
f 44//12 45//12 6//12
f 44//12 6//12 5//12
f 46//3 47//3 48//3
f 49//3 48//3 47//3
f 50//3 49//3 47//3
f 47//3 17//3 50//3
f 51//3 50//3 17//3
f 52//3 51//3 17//3
f 10//3 52//3 17//3
f 53//13 45//13 44//13
f 45//9 53//9 54//9
f 6//9 45//9 54//9
f 34//9 54//9 53//9
f 7//9 6//9 54//9
f 55//9 7//9 54//9
f 56//14 57//14 38//14
f 24//3 21//3 16//3
f 26//3 24//3 16//3
f 20//3 16//3 21//3
f 28//3 26//3 16//3
f 10//3 16//3 20//3
f 41//3 28//3 16//3
f 58//3 59//3 16//3
f 54//9 34//9 39//9
f 34//9 40//9 19//9
f 39//15 16//15 54//15
f 57//15 16//15 39//15
f 60//13 53//13 44//13
f 61//16 15//16 14//16
f 61//16 14//16 62//16
f 63//17 34//17 53//17
f 63//17 53//17 60//17
f 62//18 13//18 64//18
f 65//9 66//9 67//9
f 61//9 62//9 54//9
f 66//9 54//9 62//9
f 62//9 64//9 66//9
f 64//9 68//9 66//9
f 68//9 69//9 66//9
f 69//9 70//9 66//9
f 67//9 66//9 70//9
f 14//18 13//18 62//18
f 71//19 40//19 34//19
f 71//19 34//19 63//19
f 13//20 68//20 64//20
f 13//20 12//20 68//20
f 66//9 55//9 54//9
f 72//21 32//21 40//21
f 72//21 40//21 71//21
f 68//22 9//22 69//22
f 12//22 9//22 68//22
f 73//23 31//23 32//23
f 73//23 32//23 72//23
f 70//24 69//24 11//24
f 9//24 11//24 69//24
f 74//25 30//25 31//25
f 74//25 31//25 73//25
f 75//9 66//9 76//9
f 76//9 66//9 77//9
f 78//9 77//9 66//9
f 65//9 79//9 66//9
f 79//9 80//9 66//9
f 81//9 66//9 80//9
f 78//9 66//9 81//9
f 67//26 70//26 17//26
f 11//26 17//26 70//26
f 1//27 4//27 30//27
f 1//27 30//27 74//27
f 65//28 67//28 17//28
f 75//9 23//9 66//9
f 23//9 22//9 66//9
f 25//9 66//9 22//9
f 25//9 27//9 66//9
f 29//9 66//9 27//9
f 42//9 66//9 29//9
f 46//29 79//29 65//29
f 80//30 79//30 46//30
f 61//31 54//31 16//31
f 61//31 16//31 15//31
f 82//3 16//3 56//3
f 83//3 16//3 82//3
f 84//3 16//3 83//3
f 43//3 16//3 84//3
f 18//3 16//3 43//3
f 2//3 16//3 18//3
f 1//3 16//3 2//3
f 74//3 16//3 1//3
f 73//3 16//3 74//3
f 72//3 16//3 73//3
f 71//3 16//3 72//3
f 63//3 16//3 71//3
f 60//3 16//3 63//3
f 44//3 16//3 60//3
f 44//3 5//3 16//3
f 57//3 56//3 16//3
f 8//3 16//3 5//3
f 58//3 16//3 8//3
f 41//3 16//3 59//3
f 78//32 51//32 77//32
f 65//28 17//28 47//28
f 51//33 76//33 77//33
f 47//29 46//29 65//29
f 43//34 84//34 35//34
f 43//34 35//34 33//34
f 80//30 46//30 48//30
f 84//35 83//35 36//35
f 84//35 36//35 35//35
f 83//36 82//36 37//36
f 83//36 37//36 36//36
f 82//37 56//37 38//37
f 82//37 38//37 37//37
f 48//38 49//38 81//38
f 48//38 81//38 80//38
f 23//39 75//39 20//39
f 10//39 20//39 75//39
f 39//14 38//14 57//14
f 78//40 81//40 50//40
f 49//40 50//40 81//40
f 42//41 41//41 66//41
f 59//41 66//41 41//41
f 58//42 55//42 66//42
f 58//42 66//42 59//42
f 78//32 50//32 51//32
f 8//43 7//43 55//43
f 8//43 55//43 58//43
f 51//33 52//33 76//33
f 52//44 10//44 75//44
f 52//44 75//44 76//44
