# Blender v3.1.2 OBJ File: ''
# www.blender.org
mtllib opened_eye2.mtl
o Shiny_Snaget_(7)
v 0.667600 2.429700 0.850000
v 0.642000 2.357200 0.850000
v 0.642000 2.357200 0.800000
v 0.667600 2.429700 0.800000
v 0.602200 2.299700 0.850000
v 0.602200 2.299700 0.800000
v 0.552000 2.262700 0.850000
v 0.552000 2.262700 0.800000
v 0.496400 2.250000 0.850000
v 0.496400 2.250000 0.800000
v 0.440800 2.262700 0.850000
v 0.440800 2.262700 0.800000
v 0.390600 2.299700 0.850000
v 0.390600 2.299700 0.800000
v 0.350800 2.357200 0.850000
v 0.350800 2.357200 0.800000
v 0.325200 2.429700 0.850000
v 0.325200 2.429700 0.800000
v 0.676400 2.510000 0.800000
v 0.676400 2.510000 0.850000
v 0.440800 2.757300 0.850001
v 0.440800 2.757300 0.800000
v 0.390600 2.720300 0.800000
v 0.390600 2.720300 0.850000
v 0.496400 2.770000 0.850001
v 0.496400 2.770000 0.800000
v 0.552000 2.757300 0.850001
v 0.552000 2.757300 0.800000
v 0.602200 2.720300 0.850000
v 0.602200 2.720300 0.800000
v 0.642000 2.662800 0.850000
v 0.642000 2.662800 0.800000
v 0.667600 2.590300 0.850000
v 0.667600 2.590300 0.800000
v 0.316400 2.510000 0.800000
v 0.325200 2.590300 0.800000
v 0.350800 2.662800 0.800000
v 0.316400 2.510000 0.850000
v 0.325200 2.590300 0.850000
v 0.350800 2.662800 0.850000
v -0.671200 2.429700 0.800000
v -0.671200 2.429700 0.850000
v -0.680000 2.510000 0.850000
v -0.645600 2.357200 0.800000
v -0.645600 2.357200 0.850000
v -0.605800 2.299700 0.800000
v -0.605800 2.299700 0.850000
v -0.555600 2.262700 0.800000
v -0.555600 2.262700 0.850000
v -0.500000 2.250000 0.850000
v -0.500000 2.250000 0.800000
v -0.645600 2.662800 0.800000
v -0.671200 2.590300 0.800000
v -0.671200 2.590300 0.850000
v -0.645600 2.662800 0.850000
v -0.680000 2.510000 0.800000
v -0.444400 2.262700 0.800000
v -0.444400 2.262700 0.850000
v -0.394200 2.299700 0.800000
v -0.394200 2.299700 0.850000
v -0.354400 2.357200 0.800000
v -0.354400 2.357200 0.850000
v -0.328800 2.429700 0.800000
v -0.328800 2.429700 0.850000
v -0.500000 2.770000 0.850001
v -0.555600 2.757300 0.850001
v -0.444400 2.757300 0.850001
v -0.394200 2.720300 0.850000
v -0.605800 2.720300 0.850000
v -0.354400 2.662800 0.850000
v -0.328800 2.590300 0.850000
v -0.320000 2.510000 0.850000
v -0.500000 2.770000 0.800000
v -0.444400 2.757300 0.800000
v -0.555600 2.757300 0.800000
v -0.605800 2.720300 0.800000
v -0.394200 2.720300 0.800000
v -0.354400 2.662800 0.800000
v -0.328800 2.590300 0.800000
v -0.320000 2.510000 0.800000
vn 0.9429 -0.3330 0.0000
vn 0.8222 -0.5691 0.0000
vn 0.5933 -0.8050 0.0000
vn 0.2227 -0.9749 0.0000
vn -0.2227 -0.9749 0.0000
vn -0.5933 -0.8050 0.0000
vn -0.8222 -0.5691 0.0000
vn -0.9429 -0.3330 0.0000
vn 0.9940 -0.1089 0.0000
vn -0.5933 0.8050 0.0000
vn -0.2227 0.9749 0.0000
vn 0.2227 0.9749 0.0000
vn 0.5933 0.8050 0.0000
vn 0.8222 0.5691 0.0000
vn 0.9429 0.3330 0.0000
vn 0.9940 0.1089 0.0000
vn 0.0000 0.0000 1.0000
vn 0.0000 0.0000 -1.0000
vn -0.9940 -0.1089 0.0000
vn -0.9940 0.1089 0.0000
vn -0.9429 0.3330 0.0000
vn -0.8222 0.5691 0.0000
usemtl Default_OBJ.027
s 1
f 1//1 2//1 3//1
f 1//1 3//1 4//1
f 2//2 5//2 6//2
f 2//2 6//2 3//2
f 5//3 7//3 8//3
f 5//3 8//3 6//3
f 7//4 9//4 10//4
f 7//4 10//4 8//4
f 10//5 9//5 11//5
f 10//5 11//5 12//5
f 11//6 13//6 14//6
f 11//6 14//6 12//6
f 15//7 16//7 14//7
f 15//7 14//7 13//7
f 17//8 18//8 16//8
f 17//8 16//8 15//8
f 4//9 19//9 1//9
f 20//9 1//9 19//9
f 21//10 22//10 23//10
f 21//10 23//10 24//10
f 25//11 26//11 22//11
f 25//11 22//11 21//11
f 25//12 27//12 28//12
f 25//12 28//12 26//12
f 27//13 29//13 30//13
f 27//13 30//13 28//13
f 29//14 31//14 32//14
f 29//14 32//14 30//14
f 31//15 33//15 34//15
f 31//15 34//15 32//15
f 33//16 20//16 19//16
f 33//16 19//16 34//16
f 5//17 2//17 15//17
f 17//17 15//17 2//17
f 1//17 17//17 2//17
f 20//17 17//17 1//17
f 15//17 13//17 5//17
f 13//17 11//17 5//17
f 7//17 5//17 11//17
f 9//17 7//17 11//17
f 19//18 18//18 35//18
f 19//18 35//18 36//18
f 37//18 32//18 36//18
f 23//18 30//18 37//18
f 22//18 30//18 23//18
f 26//18 28//18 22//18
f 30//18 22//18 28//18
f 32//18 37//18 30//18
f 34//18 36//18 32//18
f 19//18 36//18 34//18
f 10//18 12//18 8//18
f 6//18 8//18 12//18
f 12//18 14//18 6//18
f 14//18 16//18 6//18
f 3//18 6//18 16//18
f 16//18 18//18 3//18
f 4//18 3//18 18//18
f 19//18 4//18 18//18
f 38//19 35//19 18//19
f 38//19 18//19 17//19
f 39//20 36//20 35//20
f 39//20 35//20 38//20
f 40//21 37//21 36//21
f 40//21 36//21 39//21
f 24//22 23//22 37//22
f 24//22 37//22 40//22
f 41//19 42//19 43//19
f 41//8 44//8 45//8
f 41//8 45//8 42//8
f 44//7 46//7 47//7
f 44//7 47//7 45//7
f 48//6 49//6 47//6
f 48//6 47//6 46//6
f 50//5 49//5 48//5
f 50//5 48//5 51//5
f 25//17 21//17 27//17
f 29//17 27//17 21//17
f 21//17 24//17 29//17
f 24//17 40//17 29//17
f 31//17 29//17 40//17
f 40//17 39//17 31//17
f 33//17 31//17 39//17
f 20//17 33//17 39//17
f 20//17 39//17 38//17
f 20//17 38//17 17//17
f 52//21 53//21 54//21
f 52//21 54//21 55//21
f 53//20 56//20 43//20
f 53//20 43//20 54//20
f 41//19 43//19 56//19
f 57//4 58//4 50//4
f 57//4 50//4 51//4
f 59//3 60//3 58//3
f 59//3 58//3 57//3
f 61//2 62//2 60//2
f 61//2 60//2 59//2
f 63//1 64//1 62//1
f 63//1 62//1 61//1
f 65//17 66//17 67//17
f 68//17 67//17 66//17
f 66//17 69//17 68//17
f 69//17 55//17 68//17
f 70//17 68//17 55//17
f 71//17 70//17 55//17
f 55//17 54//17 71//17
f 72//17 71//17 54//17
f 72//17 54//17 43//17
f 43//17 42//17 72//17
f 64//17 72//17 42//17
f 64//17 42//17 45//17
f 47//17 60//17 45//17
f 49//17 60//17 47//17
f 50//17 58//17 49//17
f 60//17 49//17 58//17
f 62//17 45//17 60//17
f 64//17 45//17 62//17
f 73//18 74//18 75//18
f 76//18 75//18 74//18
f 74//18 77//18 76//18
f 52//18 76//18 77//18
f 77//18 78//18 52//18
f 78//18 79//18 52//18
f 53//18 52//18 79//18
f 79//18 80//18 53//18
f 56//18 53//18 80//18
f 41//18 56//18 80//18
f 41//18 80//18 63//18
f 51//18 48//18 57//18
f 59//18 57//18 48//18
f 48//18 46//18 59//18
f 46//18 44//18 59//18
f 61//18 59//18 44//18
f 63//18 61//18 44//18
f 63//18 44//18 41//18
f 64//9 63//9 72//9
f 80//9 72//9 63//9
f 79//16 71//16 72//16
f 79//16 72//16 80//16
f 78//15 70//15 71//15
f 78//15 71//15 79//15
f 77//14 68//14 70//14
f 77//14 70//14 78//14
f 77//13 74//13 67//13
f 77//13 67//13 68//13
f 74//12 73//12 65//12
f 74//12 65//12 67//12
f 73//11 75//11 66//11
f 73//11 66//11 65//11
f 75//10 76//10 69//10
f 75//10 69//10 66//10
f 76//22 52//22 55//22
f 76//22 55//22 69//22
