# Blender v3.1.2 OBJ File: ''
# www.blender.org
mtllib arm2_grab_right1.mtl
o Shiny_Snaget_(9)_Shiny_Snaget_(9).001
v 7.700897 7.128806 0.300001
v 7.695044 7.120947 0.300001
v 7.690038 7.112522 0.300001
v 7.707504 7.136135 0.300001
v 7.714752 7.142658 0.300001
v 7.722717 7.148559 0.300001
v 7.731060 7.153545 0.300001
v 7.739952 7.157764 0.300001
v 7.749222 7.161068 0.300001
v 7.758647 7.163442 0.300001
v 7.768453 7.164901 0.300001
v 7.778190 7.165414 0.300001
v 7.788045 7.164903 0.300001
v 7.678703 7.055628 0.300001
v 7.807237 7.161067 0.300001
v 7.797740 7.163485 0.300001
v 7.678701 7.075221 0.300001
v 7.678191 7.065366 0.300001
v 7.680120 7.084916 0.300001
v 7.682538 7.094413 0.300001
v 7.685826 7.103658 0.300001
v 7.700947 7.001928 0.300001
v 7.816483 7.157778 0.300001
v 7.714799 6.988073 0.300001
v 7.722657 6.982220 0.300001
v 7.707470 6.994680 0.300001
v 7.695045 7.009893 0.300001
v 7.690059 7.018237 0.300001
v 7.731083 6.977214 0.300001
v 7.685840 7.027128 0.300001
v 7.682537 7.036397 0.300001
v 7.680163 7.045824 0.300001
v 7.739946 6.973002 0.300001
v 7.690038 7.112522 -0.299999
v 7.778190 7.165414 -0.299999
v 7.788045 7.164903 -0.299999
v 7.768453 7.164901 -0.299999
v 7.807237 7.161067 -0.299999
v 7.816483 7.157778 -0.299999
v 7.758647 7.163442 -0.299999
v 7.749222 7.161068 -0.299999
v 7.739952 7.157764 -0.299999
v 7.731060 7.153545 -0.299999
v 7.722717 7.148559 -0.299999
v 7.714752 7.142658 -0.299999
v 7.707504 7.136135 -0.299999
v 7.700897 7.128806 -0.299999
v 7.695044 7.120947 -0.299999
v 7.797740 7.163485 -0.299999
v 7.678191 7.065366 -0.299999
v 7.678701 7.075221 -0.299999
v 7.678703 7.055628 -0.299999
v 7.680120 7.084916 -0.299999
v 7.680163 7.045824 -0.299999
v 7.682538 7.094413 -0.299999
v 7.685826 7.103658 -0.299999
v 7.682537 7.036397 -0.299999
v 7.685840 7.027128 -0.299999
v 7.690059 7.018237 -0.299999
v 7.695045 7.009893 -0.299999
v 7.700947 7.001928 -0.299999
v 7.707470 6.994680 -0.299999
v 7.714799 6.988073 -0.299999
v 7.731083 6.977214 -0.299999
v 7.722657 6.982220 -0.299999
v 7.739946 6.973002 -0.299999
v 9.587706 6.207635 -0.299999
v 9.725486 6.290193 -0.299999
v 9.724069 6.280498 -0.299999
v 9.725997 6.300048 -0.299999
v 9.725484 6.309785 -0.299999
v 9.724025 6.319590 -0.299999
v 9.721652 6.329016 -0.299999
v 9.718348 6.338286 -0.299999
v 9.714129 6.347177 -0.299999
v 9.709142 6.355520 -0.299999
v 9.703241 6.363485 -0.299999
v 9.696718 6.370733 -0.299999
v 9.689388 6.377341 -0.299999
v 9.689435 6.222756 -0.299999
v 9.696683 6.229279 -0.299999
v 9.703291 6.236608 -0.299999
v 9.709144 6.244466 -0.299999
v 9.714149 6.252892 -0.299999
v 9.718361 6.261755 -0.299999
v 9.721649 6.271000 -0.299999
v 9.696718 6.370733 0.300001
v 9.689388 6.377341 0.300001
v 9.721649 6.271000 0.300001
v 9.703241 6.363485 0.300001
v 9.681530 6.383193 0.300001
v 9.724069 6.280498 0.300001
v 9.709142 6.355520 0.300001
v 9.714129 6.347177 0.300001
v 9.718348 6.338286 0.300001
v 9.721652 6.329016 0.300001
v 9.724025 6.319590 0.300001
v 9.725484 6.309785 0.300001
v 9.725997 6.300048 0.300001
v 9.725486 6.290193 0.300001
v 9.718361 6.261755 0.300001
v 9.673104 6.388199 0.300001
v 9.714149 6.252892 0.300001
v 9.664242 6.392411 0.300001
v 9.709144 6.244466 0.300001
v 9.703291 6.236608 0.300001
v 9.696683 6.229279 0.300001
v 9.689435 6.222756 0.300001
v 9.681471 6.216855 0.300001
v 9.673127 6.211868 0.300001
v 9.664236 6.207649 0.300001
v 9.654966 6.204345 0.300001
v 9.645540 6.201972 0.300001
v 9.635736 6.200513 0.300001
v 9.625998 6.200000 0.300001
v 9.616143 6.200510 0.300001
v 9.606448 6.201929 0.300001
v 9.596951 6.204347 0.300001
v 9.587706 6.207635 0.300001
v 9.681530 6.383193 -0.299999
v 9.673104 6.388199 -0.299999
v 9.664242 6.392411 -0.299999
v 9.616143 6.200510 -0.299999
v 9.606448 6.201929 -0.299999
v 9.596951 6.204347 -0.299999
v 9.625998 6.200000 -0.299999
v 9.635736 6.200513 -0.299999
v 9.645540 6.201972 -0.299999
v 9.654966 6.204345 -0.299999
v 9.664236 6.207649 -0.299999
v 9.673127 6.211868 -0.299999
v 9.681471 6.216855 -0.299999
vn 0.0000 0.0000 1.0000
vn 0.0000 0.0000 -1.0000
vn -0.9691 0.2467 0.0000
vn -0.9895 0.1449 0.0000
vn -0.9986 -0.0526 0.0000
vn -0.9986 -0.0523 0.0000
vn -0.9891 -0.1472 0.0000
vn -0.9891 -0.1474 0.0000
vn -0.9697 -0.2443 0.0000
vn -0.9698 -0.2440 0.0000
vn -0.9419 -0.3358 0.0000
vn -0.9420 -0.3355 0.0000
vn -0.5973 -0.8020 0.0000
vn -0.5108 -0.8597 0.0000
vn 0.5131 -0.8583 0.0000
vn 0.5130 -0.8584 0.0000
vn -0.7428 0.6695 0.0000
vn -0.7427 0.6696 0.0000
vn 0.3352 0.9422 0.0000
vn 0.2467 0.9691 0.0000
vn 0.1447 0.9895 0.0000
vn -0.6690 0.7433 0.0000
vn -0.8021 0.5973 0.0000
vn -0.8020 0.5974 0.0000
vn 0.5108 0.8597 0.0000
vn 0.2442 -0.9697 0.0000
vn 0.2441 -0.9697 0.0000
vn 0.1472 -0.9891 0.0000
vn -0.1448 -0.9895 0.0000
vn -0.2467 -0.9691 0.0000
vn 0.9419 0.3359 0.0000
vn 0.9420 0.3356 0.0000
vn 0.9698 0.2440 0.0000
vn 0.9697 0.2441 0.0000
vn -0.9033 0.4290 0.0000
vn -0.9032 0.4292 0.0000
vn -0.4287 0.9034 0.0000
vn -0.4286 0.9035 0.0000
vn -0.5130 0.8584 0.0000
vn 0.9033 -0.4291 0.0000
vn 0.9032 -0.4292 0.0000
vn 0.8597 -0.5108 0.0000
vn 0.8598 -0.5107 0.0000
vn 0.8020 -0.5973 0.0000
vn 0.7426 -0.6697 0.0000
vn 0.7427 -0.6696 0.0000
vn -0.9031 0.4293 0.0000
vn 0.6690 -0.7433 0.0000
vn -0.9422 0.3350 0.0000
vn -0.9422 0.3351 0.0000
vn 0.5953 -0.8035 0.0000
vn 0.5954 -0.8035 0.0000
vn -0.9987 0.0515 0.0000
vn -0.9987 0.0517 0.0000
vn 0.4287 -0.9035 0.0000
vn 0.4287 -0.9034 0.0000
vn -0.9034 -0.4288 0.0000
vn -0.9035 -0.4287 0.0000
vn -0.8584 -0.5130 0.0000
vn 0.3357 -0.9420 0.0000
vn -0.8035 -0.5953 0.0000
vn -0.7433 -0.6690 0.0000
vn -0.6696 -0.7427 0.0000
vn 0.0526 -0.9986 0.0000
vn -0.4292 -0.9032 0.0000
vn -0.0517 -0.9987 0.0000
vn 0.0518 0.9987 0.0000
vn 0.0517 0.9987 0.0000
vn -0.0526 0.9986 0.0000
vn -0.3357 0.9420 0.0000
vn -0.3351 -0.9422 0.0000
vn -0.3350 -0.9422 0.0000
vn -0.5953 0.8035 0.0000
vn 0.5973 0.8020 0.0000
vn -0.8596 0.5109 0.0000
vn -0.8597 0.5108 0.0000
vn 0.9035 0.4285 0.0000
vn 0.9034 0.4288 0.0000
vn 0.9986 0.0527 0.0000
vn 0.9987 -0.0517 0.0000
vn 0.9987 -0.0519 0.0000
vn -0.1471 0.9891 0.0000
vn 0.9895 -0.1447 0.0000
vn -0.2443 0.9697 0.0000
vn 0.9691 -0.2468 0.0000
vn 0.9422 -0.3351 0.0000
vn 0.3827 0.9239 0.0000
vn 0.6696 0.7428 0.0000
vn 0.7433 0.6690 0.0000
vn 0.8036 0.5952 0.0000
vn -0.3827 -0.9239 0.0000
vn 0.8583 0.5131 0.0000
vn 0.9891 0.1470 0.0000
vn 0.9891 0.1473 0.0000
vn 0.4293 0.9031 0.0000
vn 0.4293 0.9032 0.0000
usemtl Default_OBJ.015
s 1
f 1//1 2//1 3//1
f 1//1 3//1 4//1
f 4//1 3//1 5//1
f 5//1 3//1 6//1
f 6//1 3//1 7//1
f 7//1 3//1 8//1
f 8//1 3//1 9//1
f 9//1 3//1 10//1
f 10//1 3//1 11//1
f 11//1 3//1 12//1
f 12//1 3//1 13//1
f 14//1 15//1 16//1
f 13//1 17//1 18//1
f 13//1 19//1 17//1
f 13//1 20//1 19//1
f 13//1 21//1 20//1
f 13//1 3//1 21//1
f 18//1 14//1 13//1
f 22//1 23//1 15//1
f 16//1 13//1 14//1
f 23//1 24//1 25//1
f 23//1 26//1 24//1
f 23//1 22//1 26//1
f 15//1 27//1 22//1
f 15//1 28//1 27//1
f 25//1 29//1 23//1
f 15//1 30//1 28//1
f 15//1 31//1 30//1
f 15//1 32//1 31//1
f 15//1 14//1 32//1
f 29//1 33//1 23//1
f 34//2 35//2 36//2
f 34//2 37//2 35//2
f 38//2 39//2 34//2
f 37//2 34//2 40//2
f 40//2 34//2 41//2
f 41//2 34//2 42//2
f 42//2 34//2 43//2
f 43//2 34//2 44//2
f 44//2 34//2 45//2
f 45//2 34//2 46//2
f 46//2 34//2 47//2
f 47//2 34//2 48//2
f 34//2 36//2 49//2
f 49//2 38//2 34//2
f 50//2 51//2 39//2
f 52//2 50//2 39//2
f 51//2 53//2 39//2
f 54//2 52//2 39//2
f 53//2 55//2 39//2
f 55//2 56//2 39//2
f 39//2 56//2 34//2
f 39//2 57//2 54//2
f 39//2 58//2 57//2
f 39//2 59//2 58//2
f 39//2 60//2 59//2
f 39//2 61//2 60//2
f 39//2 62//2 61//2
f 39//2 63//2 62//2
f 39//2 64//2 65//2
f 39//2 66//2 64//2
f 39//2 65//2 63//2
f 67//2 68//2 69//2
f 67//2 70//2 68//2
f 67//2 71//2 70//2
f 67//2 72//2 71//2
f 67//2 73//2 72//2
f 67//2 74//2 73//2
f 67//2 75//2 74//2
f 67//2 76//2 75//2
f 67//2 77//2 76//2
f 67//2 78//2 77//2
f 67//2 79//2 78//2
f 80//2 67//2 81//2
f 81//2 67//2 82//2
f 67//2 83//2 82//2
f 67//2 84//2 83//2
f 67//2 85//2 84//2
f 69//2 86//2 67//2
f 86//2 85//2 67//2
f 20//3 53//3 19//3
f 19//4 53//4 17//4
f 14//5 18//5 52//6
f 32//7 14//7 52//8
f 87//1 88//1 89//1
f 90//1 87//1 89//1
f 32//9 57//10 31//9
f 30//11 31//11 57//12
f 88//1 91//1 89//1
f 89//1 92//1 90//1
f 93//1 90//1 94//1
f 94//1 90//1 95//1
f 95//1 90//1 96//1
f 96//1 90//1 97//1
f 97//1 90//1 98//1
f 98//1 90//1 99//1
f 99//1 90//1 100//1
f 100//1 90//1 92//1
f 101//1 89//1 102//1
f 103//1 101//1 102//1
f 91//1 102//1 89//1
f 102//1 104//1 103//1
f 103//1 104//1 105//1
f 105//1 104//1 106//1
f 106//1 104//1 107//1
f 107//1 104//1 108//1
f 109//1 108//1 104//1
f 25//13 24//13 65//13
f 110//1 109//1 104//1
f 111//1 110//1 104//1
f 112//1 111//1 104//1
f 113//1 112//1 104//1
f 114//1 113//1 104//1
f 115//1 114//1 104//1
f 116//1 115//1 104//1
f 117//1 116//1 104//1
f 104//1 118//1 117//1
f 104//1 119//1 118//1
f 29//14 25//14 65//14
f 79//2 67//2 120//2
f 120//2 67//2 121//2
f 121//2 67//2 122//2
f 123//2 124//2 125//2
f 126//2 123//2 125//2
f 127//2 126//2 125//2
f 128//2 127//2 125//2
f 129//2 128//2 125//2
f 130//2 129//2 125//2
f 131//2 130//2 125//2
f 132//2 131//2 125//2
f 80//2 132//2 125//2
f 125//2 67//2 80//2
f 109//15 110//15 132//16
f 4//17 46//18 47//18
f 39//19 38//19 15//19
f 49//20 16//20 15//20
f 13//21 16//21 49//21
f 5//22 46//22 4//22
f 47//18 1//17 4//17
f 47//23 48//23 2//24
f 120//25 121//25 102//25
f 129//26 112//27 113//27
f 113//28 114//28 128//28
f 123//29 116//29 117//29
f 117//30 118//30 124//30
f 95//31 96//31 73//32
f 72//33 73//33 96//34
f 3//35 34//36 56//36
f 43//37 8//38 42//37
f 44//39 6//39 43//39
f 46//22 5//22 45//22
f 84//40 85//40 101//41
f 105//42 83//43 103//42
f 82//44 83//44 106//44
f 106//44 83//44 105//44
f 106//45 107//45 81//46
f 81//46 82//46 106//45
f 56//36 21//47 3//35
f 108//48 81//48 107//48
f 55//49 20//50 21//50
f 21//50 56//49 55//49
f 53//3 20//3 55//3
f 109//51 132//52 108//51
f 17//4 53//4 51//4
f 17//53 51//54 50//54
f 50//54 18//53 17//53
f 52//6 18//5 50//6
f 54//8 32//7 52//8
f 110//15 131//16 132//16
f 32//9 54//10 57//10
f 57//12 58//12 30//11
f 131//55 110//56 111//56
f 28//57 30//57 58//58
f 58//58 59//58 28//57
f 59//59 60//59 27//59
f 27//59 28//59 59//59
f 112//60 129//60 111//60
f 27//61 60//61 61//61
f 61//61 22//61 27//61
f 61//62 62//62 26//62
f 26//62 22//62 61//62
f 113//27 128//26 129//26
f 26//63 62//63 63//63
f 63//63 24//63 26//63
f 65//13 24//13 63//13
f 64//14 29//14 65//14
f 115//64 126//64 127//64
f 127//64 114//64 115//64
f 64//65 66//65 33//65
f 33//65 29//65 64//65
f 123//66 126//66 115//66
f 115//66 116//66 123//66
f 35//67 12//68 36//67
f 36//67 12//68 13//68
f 12//69 35//69 37//69
f 117//29 124//29 123//29
f 42//70 8//70 41//70
f 125//71 118//72 119//72
f 6//39 7//39 43//39
f 6//73 44//73 5//73
f 44//73 45//73 5//73
f 88//74 79//74 120//74
f 2//24 1//24 47//23
f 2//75 48//76 3//75
f 34//76 3//75 48//76
f 74//77 94//78 95//78
f 15//19 23//19 39//19
f 49//20 15//20 38//20
f 96//34 97//34 72//33
f 36//21 13//21 49//21
f 71//79 98//79 99//79
f 12//69 37//69 11//69
f 99//80 100//80 68//81
f 68//81 70//81 99//80
f 37//82 40//82 10//82
f 10//82 11//82 37//82
f 68//83 100//83 92//83
f 92//83 69//83 68//83
f 9//84 10//84 41//84
f 41//84 10//84 40//84
f 89//85 86//85 69//85
f 69//85 92//85 89//85
f 8//70 9//70 41//70
f 85//86 86//86 89//86
f 43//37 7//38 8//38
f 39//87 104//87 122//87
f 104//87 39//87 23//87
f 101//41 103//41 84//40
f 83//43 84//43 103//42
f 87//88 78//88 79//88
f 79//88 88//88 87//88
f 87//89 90//89 77//89
f 77//89 78//89 87//89
f 76//90 77//90 90//90
f 90//90 93//90 76//90
f 81//48 108//48 80//48
f 119//91 33//91 66//91
f 66//91 67//91 119//91
f 94//92 76//92 93//92
f 108//51 132//52 80//52
f 33//1 119//1 104//1
f 23//1 33//1 104//1
f 74//32 95//31 73//32
f 66//2 39//2 67//2
f 67//2 39//2 122//2
f 72//93 97//94 98//94
f 131//55 111//56 130//55
f 130//60 111//60 129//60
f 128//28 114//28 127//28
f 124//30 118//30 125//30
f 119//72 67//71 125//71
f 76//92 94//92 75//92
f 74//77 75//77 94//78
f 72//93 98//94 71//93
f 99//79 70//79 71//79
f 89//86 101//86 85//86
f 122//95 104//96 121//95
f 102//96 121//95 104//96
f 102//25 91//25 120//25
f 120//74 91//74 88//74
