# Blender v3.1.2 OBJ File: ''
# www.blender.org
mtllib arm_grab_right.mtl
o Shiny_Snaget_(3)_Shiny_Snaget_(3).001
v 0.365051 7.319955 0.400001
v 0.365051 8.119956 0.400001
v 0.365051 7.319955 -0.399999
v 0.365051 8.119956 -0.399999
v 1.998851 8.112955 -0.399999
v 1.965052 8.098956 -0.399999
v 1.998851 8.112955 0.400001
v 1.965052 8.098956 0.400001
v 2.634948 6.577241 -0.399999
v 2.634948 6.577241 0.400001
v 2.090996 5.800000 0.400001
v 1.461427 7.319955 -0.399999
v 2.090996 5.800000 -0.399999
v 1.461427 7.319955 0.400001
v 1.965052 8.119956 0.400001
v 1.965052 8.119956 -0.399999
vn -1.0000 0.0000 0.0000
vn -0.3827 0.9239 0.0000
vn 0.9239 0.3827 0.0000
vn -0.9239 -0.3827 0.0000
vn 0.0000 -0.0000 1.0000
vn 0.0000 0.0000 -1.0000
vn 1.0000 0.0000 0.0000
vn 0.0000 -1.0000 0.0000
vn 0.0000 1.0000 0.0000
vn 0.8193 -0.5734 0.0000
usemtl Default_OBJ.006
s 1
f 1//1 2//1 3//1
f 3//1 2//1 4//1
f 5//2 6//2 7//2
f 7//2 6//2 8//2
f 9//3 5//3 10//3
f 10//3 5//3 7//3
f 11//4 12//4 13//4
f 14//5 11//5 10//5
f 10//5 7//5 8//5
f 2//5 14//5 8//5
f 2//5 1//5 14//5
f 8//5 15//5 2//5
f 3//6 4//6 12//6
f 12//6 4//6 6//6
f 6//6 4//6 16//6
f 8//5 14//5 10//5
f 6//7 16//7 8//7
f 8//7 16//7 15//7
f 14//8 1//8 12//8
f 12//8 1//8 3//8
f 16//9 4//9 15//9
f 15//9 4//9 2//9
f 11//4 14//4 12//4
f 9//6 13//6 12//6
f 6//6 5//6 9//6
f 12//6 6//6 9//6
f 11//10 13//10 10//10
f 10//10 13//10 9//10
