# Blender v3.1.2 OBJ File: ''
# www.blender.org
mtllib closed_eye.mtl
o Shiny_Snaget_(4)
v 0.500000 4.200000 0.900001
v 0.438200 4.185300 0.900001
v 0.561800 4.185300 0.900001
v 0.617600 4.142700 0.900001
v 0.690200 3.992700 0.900001
v 0.661800 4.076300 0.900001
v 0.338200 4.076300 0.900001
v 0.309800 3.992700 0.900001
v 0.617600 3.657300 0.600001
v 0.617600 3.657300 0.900001
v 0.561800 3.614700 0.900001
v 0.561800 3.614700 0.600001
v 0.617600 4.142700 0.600001
v 0.561800 4.185300 0.600001
v 0.661800 3.723700 0.600001
v 0.661800 3.723700 0.900001
v 0.500000 4.200000 0.600001
v 0.690200 3.807300 0.600001
v 0.690200 3.807300 0.900001
v 0.438200 4.185300 0.600001
v -0.690200 3.807300 0.600001
v -0.661800 3.723700 0.600001
v -0.661800 3.723700 0.900001
v -0.690200 3.807300 0.900001
v 0.382400 4.142700 0.600001
v 0.382400 4.142700 0.900001
v -0.617600 3.657300 0.600001
v -0.617600 3.657300 0.900001
v 0.700000 3.900000 0.600001
v 0.700000 3.900000 0.900001
v 0.300000 3.900000 0.900001
v 0.309800 3.807300 0.900001
v 0.338200 3.723700 0.900001
v 0.382400 3.657300 0.900001
v 0.438200 3.614700 0.900001
v 0.500000 3.600000 0.900001
v 0.690200 3.992700 0.600001
v -0.561800 3.614700 0.600001
v -0.561800 3.614700 0.900001
v 0.661800 4.076300 0.600001
v -0.500000 4.200000 0.900001
v -0.561800 4.185300 0.900001
v -0.438200 4.185300 0.900001
v -0.382400 4.142700 0.900001
v -0.309800 3.992700 0.900001
v -0.338200 4.076300 0.900001
v -0.661800 4.076300 0.900001
v -0.690200 3.992700 0.900001
v 0.500000 3.600000 0.600001
v -0.500000 3.600000 0.900001
v -0.500000 3.600000 0.600001
v -0.617600 4.142700 0.900001
v -0.300000 3.900000 0.900001
v -0.700000 3.900000 0.900001
v -0.309800 3.807300 0.900001
v -0.338200 3.723700 0.900001
v -0.382400 3.657300 0.900001
v -0.438200 3.614700 0.900001
v -0.561800 4.185300 0.600001
v -0.617600 4.142700 0.600001
v 0.338200 4.076300 0.600001
v -0.309800 3.992700 0.600001
v -0.300000 3.900000 0.600001
v 0.309800 3.992700 0.600001
v -0.338200 4.076300 0.600001
v -0.438200 3.614700 0.600001
v 0.300000 3.900000 0.600001
v -0.382400 3.657300 0.600001
v 0.309800 3.807300 0.600001
v -0.661800 4.076300 0.600001
v -0.338200 3.723700 0.600001
v 0.338200 3.723700 0.600001
v -0.690200 3.992700 0.600001
v -0.309800 3.807300 0.600001
v 0.382400 3.657300 0.600001
v 0.438200 3.614700 0.600001
v -0.700000 3.900000 0.600001
v -0.500000 4.200000 0.600001
v -0.438200 4.185300 0.600001
v -0.382400 4.142700 0.600001
vn 0.0000 0.0000 1.0000
vn 0.6068 -0.7948 -0.0000
vn 0.6068 0.7948 0.0000
vn 0.8324 -0.5541 0.0000
vn 0.2314 0.9729 0.0000
vn 0.9469 -0.3217 -0.0000
vn -0.2314 0.9729 0.0000
vn -0.9469 -0.3217 -0.0000
vn -0.6068 0.7948 0.0000
vn -0.8324 -0.5541 0.0000
vn 0.9945 -0.1051 0.0000
vn 0.9945 0.1051 0.0000
vn -0.8324 0.5541 0.0000
vn -0.6068 -0.7948 -0.0000
vn 0.9469 0.3217 0.0000
vn 0.2314 -0.9729 0.0000
vn -0.2314 -0.9729 0.0000
vn 0.8324 0.5541 0.0000
vn 0.0000 0.0000 -1.0000
vn -0.9469 0.3217 0.0000
vn -0.9945 0.1051 0.0000
vn -0.9945 -0.1051 -0.0000
usemtl Default_OBJ.023
s 1
f 1//1 2//1 3//1
f 4//1 3//1 2//1
f 5//1 6//1 7//1
f 7//1 8//1 5//1
f 9//2 10//2 11//2
f 9//2 11//2 12//2
f 13//3 14//3 3//3
f 13//3 3//3 4//3
f 15//4 16//4 10//4
f 15//4 10//4 9//4
f 14//5 17//5 1//5
f 14//5 1//5 3//5
f 18//6 19//6 16//6
f 18//6 16//6 15//6
f 17//7 20//7 2//7
f 17//7 2//7 1//7
f 21//8 22//8 23//8
f 21//8 23//8 24//8
f 20//9 25//9 26//9
f 20//9 26//9 2//9
f 22//10 27//10 28//10
f 22//10 28//10 23//10
f 29//11 30//11 19//11
f 29//11 19//11 18//11
f 2//1 26//1 4//1
f 6//1 4//1 26//1
f 26//1 7//1 6//1
f 30//1 5//1 8//1
f 30//1 8//1 31//1
f 30//1 31//1 32//1
f 33//1 19//1 32//1
f 34//1 16//1 33//1
f 35//1 10//1 34//1
f 36//1 11//1 35//1
f 10//1 35//1 11//1
f 16//1 34//1 10//1
f 19//1 33//1 16//1
f 30//1 32//1 19//1
f 37//12 5//12 30//12
f 37//12 30//12 29//12
f 7//13 26//13 25//13
f 38//14 39//14 28//14
f 38//14 28//14 27//14
f 40//15 6//15 5//15
f 40//15 5//15 37//15
f 41//1 42//1 43//1
f 44//1 43//1 42//1
f 45//1 46//1 47//1
f 47//1 48//1 45//1
f 12//16 11//16 36//16
f 12//16 36//16 49//16
f 50//17 39//17 38//17
f 50//17 38//17 51//17
f 40//18 13//18 6//18
f 4//18 6//18 13//18
f 42//1 52//1 44//1
f 46//1 44//1 52//1
f 52//1 47//1 46//1
f 53//1 45//1 48//1
f 53//1 48//1 54//1
f 53//1 54//1 24//1
f 23//1 55//1 24//1
f 28//1 56//1 23//1
f 39//1 57//1 28//1
f 50//1 58//1 39//1
f 57//1 39//1 58//1
f 56//1 28//1 57//1
f 55//1 23//1 56//1
f 53//1 24//1 55//1
f 59//9 60//9 52//9
f 59//9 52//9 42//9
f 25//13 61//13 7//13
f 62//12 45//12 53//12
f 62//12 53//12 63//12
f 47//13 52//13 60//13
f 17//19 14//19 20//19
f 25//19 20//19 14//19
f 14//19 13//19 25//19
f 61//20 64//20 8//20
f 61//20 8//20 7//20
f 65//15 46//15 45//15
f 65//15 45//15 62//15
f 66//16 58//16 50//16
f 66//16 50//16 51//16
f 64//21 67//21 31//21
f 64//21 31//21 8//21
f 44//18 46//18 65//18
f 68//2 57//2 58//2
f 68//2 58//2 66//2
f 31//22 67//22 69//22
f 31//22 69//22 32//22
f 60//13 70//13 47//13
f 71//4 56//4 57//4
f 71//4 57//4 68//4
f 69//8 72//8 33//8
f 69//8 33//8 32//8
f 70//20 73//20 48//20
f 70//20 48//20 47//20
f 74//6 55//6 56//6
f 74//6 56//6 71//6
f 72//10 75//10 34//10
f 72//10 34//10 33//10
f 13//19 40//19 37//19
f 13//19 37//19 29//19
f 13//19 29//19 18//19
f 13//19 18//19 15//19
f 13//19 15//19 9//19
f 13//19 9//19 12//19
f 13//19 12//19 49//19
f 13//19 49//19 76//19
f 13//19 76//19 75//19
f 13//19 75//19 72//19
f 13//19 72//19 69//19
f 13//19 69//19 67//19
f 13//19 67//19 64//19
f 13//19 64//19 61//19
f 13//19 61//19 25//19
f 76//14 35//14 34//14
f 76//14 34//14 75//14
f 73//21 77//21 54//21
f 73//21 54//21 48//21
f 63//11 53//11 55//11
f 63//11 55//11 74//11
f 54//22 77//22 21//22
f 54//22 21//22 24//22
f 36//17 35//17 76//17
f 36//17 76//17 49//17
f 78//19 79//19 59//19
f 60//19 59//19 79//19
f 60//19 79//19 80//19
f 60//19 80//19 65//19
f 65//19 62//19 63//19
f 65//19 63//19 74//19
f 65//19 74//19 71//19
f 65//19 71//19 68//19
f 65//19 68//19 66//19
f 65//19 66//19 51//19
f 65//19 51//19 38//19
f 65//19 38//19 27//19
f 65//19 27//19 22//19
f 65//19 22//19 21//19
f 65//19 21//19 77//19
f 65//19 77//19 73//19
f 65//19 73//19 70//19
f 65//19 70//19 60//19
f 80//18 44//18 65//18
f 80//3 79//3 43//3
f 80//3 43//3 44//3
f 79//5 78//5 41//5
f 79//5 41//5 43//5
f 78//7 59//7 42//7
f 78//7 42//7 41//7
