# Blender v3.1.2 OBJ File: ''
# www.blender.org
mtllib arm2_grab_right2.mtl
o Shiny_Snaget_(10)_Shiny_Snaget_(10).002
v 9.657994 6.473102 0.500001
v 9.638608 6.476004 0.500001
v 9.618949 6.476953 0.500001
v 9.599423 6.476009 0.500001
v 9.677069 6.468339 0.500001
v 9.695517 6.461693 0.500001
v 9.713261 6.453348 0.500001
v 9.730117 6.443228 0.500001
v 9.745876 6.431572 0.500001
v 9.760448 6.418341 0.500001
v 9.773588 6.403868 0.500001
v 9.785332 6.388059 0.500001
v 9.795343 6.371207 0.500001
v 9.560946 6.468297 0.500001
v 9.803767 6.353481 0.500001
v 9.452708 6.388070 0.500001
v 9.442588 6.371214 0.500001
v 9.464364 6.403830 0.500001
v 9.477595 6.418402 0.500001
v 9.492068 6.431541 0.500001
v 9.507877 6.443285 0.500001
v 9.434243 6.353470 0.500001
v 9.524730 6.453297 0.500001
v 9.542455 6.461720 0.500001
v 9.579940 6.473135 0.500001
v 9.427597 6.335022 0.500001
v 9.427638 6.218898 0.500001
v 9.434216 6.200408 0.500001
v 9.419932 6.296562 -0.499999
v 9.419932 6.296562 0.500001
v 9.422834 6.315948 -0.499999
v 9.419927 6.257377 0.500001
v 9.422801 6.237894 0.500001
v 9.418983 6.276902 0.500001
v 9.422834 6.315948 0.500001
v 9.579940 6.473135 -0.499999
v 9.599423 6.476009 -0.499999
v 9.795343 6.371207 -0.499999
v 9.618949 6.476953 -0.499999
v 9.785332 6.388059 -0.499999
v 9.773588 6.403868 -0.499999
v 9.760448 6.418341 -0.499999
v 9.745876 6.431572 -0.499999
v 9.730117 6.443228 -0.499999
v 9.713261 6.453348 -0.499999
v 9.695517 6.461693 -0.499999
v 9.677069 6.468339 -0.499999
v 9.657994 6.473102 -0.499999
v 9.638608 6.476004 -0.499999
v 9.492068 6.431541 -0.499999
v 9.507877 6.443285 -0.499999
v 9.477595 6.418402 -0.499999
v 9.464364 6.403830 -0.499999
v 9.452708 6.388070 -0.499999
v 9.442588 6.371214 -0.499999
v 9.524730 6.453297 -0.499999
v 9.434243 6.353470 -0.499999
v 9.427597 6.335022 -0.499999
v 9.542455 6.461720 -0.499999
v 9.560946 6.468297 -0.499999
v 9.419927 6.257377 -0.499999
v 9.418983 6.276902 -0.499999
v 9.422801 6.237894 -0.499999
v 9.427638 6.218898 -0.499999
v 9.803767 6.353481 -0.499999
v 9.434216 6.200408 -0.499999
v 10.359523 4.868308 -0.499999
v 10.359523 4.868308 0.500001
v 10.354472 4.859072 -0.499999
v 9.893435 5.091753 -0.499999
v 10.339524 5.060050 -0.499999
v 10.346655 5.041789 -0.499999
v 10.368182 4.951667 -0.499999
v 10.369424 4.935080 -0.499999
v 10.358248 5.004919 -0.499999
v 10.362517 4.986771 -0.499999
v 10.365911 4.968910 -0.499999
v 10.368661 4.904781 -0.499999
v 10.366672 4.891293 -0.499999
v 10.369615 4.919464 -0.499999
v 10.363607 4.879092 -0.499999
v 10.348549 4.851423 -0.499999
v 10.341583 4.845507 -0.499999
v 10.352878 5.023368 -0.499999
v 10.365911 4.968910 0.500001
v 10.362517 4.986771 0.500001
v 10.369615 4.919464 0.500001
v 10.369424 4.935080 0.500001
v 10.352878 5.023368 0.500001
v 10.354472 4.859072 0.500001
v 10.348549 4.851423 0.500001
v 9.711349 4.608917 -0.499999
v 9.700554 4.615378 0.500001
v 9.700554 4.615378 -0.499999
v 9.689610 4.623509 -0.499999
v 9.600421 4.753903 0.500001
v 9.600421 4.753903 -0.499999
v 9.608291 4.735949 0.500001
v 10.363607 4.879092 0.500001
v 9.591395 4.962531 0.500001
v 9.591395 4.962531 -0.499999
v 9.585471 4.954881 0.500001
v 9.759089 4.603148 0.500001
v 9.759089 4.603148 -0.499999
v 10.333928 4.841254 -0.499999
v 9.593289 4.772165 -0.499999
v 9.593289 4.772165 0.500001
v 9.587066 4.790585 -0.499999
v 10.333928 4.841254 0.500001
v 9.741561 4.600000 0.500001
v 9.741561 4.600000 -0.499999
v 9.750669 4.600742 0.500001
v 9.598361 4.968447 0.500001
v 9.598361 4.968447 -0.499999
v 9.606017 4.972700 0.500001
v 9.606017 4.972700 -0.499999
v 9.616916 4.718523 0.500001
v 9.731963 4.601220 0.500001
v 9.721862 4.604180 0.500001
v 9.711349 4.608917 0.500001
v 9.689610 4.623509 0.500001
v 9.678553 4.633216 0.500001
v 9.667645 4.644393 0.500001
v 9.656795 4.657001 0.500001
v 9.646209 4.670800 0.500001
v 9.635978 4.685829 0.500001
v 9.626165 4.701680 0.500001
v 9.570330 4.894490 0.500001
v 9.570330 4.894490 -0.499999
v 9.570520 4.878874 0.500001
v 9.571284 4.909173 -0.499999
v 9.571284 4.909173 0.500001
v 9.573274 4.922660 0.500001
v 9.573274 4.922660 -0.499999
v 9.576338 4.934862 0.500001
v 9.576338 4.934862 -0.499999
v 9.580421 4.945646 0.500001
v 9.893435 5.091753 0.500001
v 10.358248 5.004919 0.500001
v 9.587066 4.790585 0.500001
v 9.581697 4.809035 0.500001
v 9.577428 4.827182 0.500001
v 9.577428 4.827182 -0.499999
v 10.368661 4.904781 0.500001
v 10.346655 5.041789 0.500001
v 9.574035 4.845043 -0.499999
v 9.574035 4.845043 0.500001
v 9.571763 4.862287 0.500001
v 9.571763 4.862287 -0.499999
v 10.366672 4.891293 0.500001
v 10.341583 4.845507 0.500001
v 9.678553 4.633216 -0.499999
v 10.368182 4.951667 0.500001
v 9.667645 4.644393 -0.499999
v 9.608291 4.735949 -0.499999
v 9.656795 4.657001 -0.499999
v 9.616916 4.718523 -0.499999
v 9.626165 4.701680 -0.499999
v 9.635978 4.685829 -0.499999
v 9.646209 4.670800 -0.499999
v 9.721862 4.604180 -0.499999
v 9.731963 4.601220 -0.499999
v 9.750669 4.600742 -0.499999
v 10.339524 5.060050 0.500001
v 9.585471 4.954881 -0.499999
v 9.580421 4.945646 -0.499999
v 9.570520 4.878874 -0.499999
v 9.581697 4.809035 -0.499999
vn -0.0000 0.0000 1.0000
vn -0.9890 0.1480 0.0000
vn -0.9890 0.1481 0.0000
vn 0.0000 0.0000 -1.0000
vn 0.8597 0.5108 0.0000
vn 0.8774 -0.4798 0.0000
vn -0.5107 0.8597 0.0000
vn -0.5108 0.8597 0.0000
vn -0.5964 0.8027 0.0000
vn -0.5963 0.8028 0.0000
vn -0.6722 0.7404 0.0000
vn -0.8040 0.5946 0.0000
vn -0.9049 0.4256 0.0000
vn -0.8573 0.5147 0.0000
vn -0.9408 0.3390 0.0000
vn -0.9408 0.3389 0.0000
vn 0.9824 0.1866 0.0000
vn -0.9702 0.2423 0.0000
vn -0.9988 0.0482 0.0000
vn -0.9988 0.0483 0.0000
vn -0.9988 -0.0483 0.0000
vn -0.9988 -0.0482 0.0000
vn -0.9893 -0.1460 0.0000
vn -0.9422 -0.3351 0.0000
vn -0.9421 -0.3352 0.0000
vn -0.9691 -0.2468 0.0000
vn 0.9032 0.4293 0.0000
vn 0.9032 0.4292 0.0000
vn 0.8027 0.5964 0.0000
vn 0.8028 0.5963 0.0000
vn 0.7404 0.6722 0.0000
vn 0.6722 0.7404 0.0000
vn 0.5947 0.8040 0.0000
vn 0.5946 0.8040 0.0000
vn 0.9999 0.0122 0.0000
vn 0.5147 0.8574 0.0000
vn 0.5148 0.8573 0.0000
vn 0.4256 0.9049 0.0000
vn 0.3389 0.9408 0.0000
vn 0.2423 0.9702 0.0000
vn 0.1480 0.9890 0.0000
vn 0.0482 0.9988 0.0000
vn 0.9474 0.3201 0.0000
vn 0.9474 0.3200 0.0000
vn -0.0483 0.9988 0.0000
vn -0.1459 0.9893 0.0000
vn 0.7906 -0.6123 0.0000
vn 0.7907 -0.6122 0.0000
vn -0.2468 0.9691 0.0000
vn -0.3351 0.9422 0.0000
vn -0.4292 0.9032 0.0000
vn 0.9602 0.2794 0.0000
vn 0.9601 0.2795 0.0000
vn -0.7403 0.6722 0.0000
vn 0.9734 0.2291 0.0000
vn 0.9734 0.2290 0.0000
vn -0.5135 -0.8581 0.0000
vn -0.5136 -0.8580 0.0000
vn -0.5964 -0.8027 0.0000
vn -0.9159 -0.4015 0.0000
vn 0.9972 0.0747 0.0000
vn 0.9972 0.0748 0.0000
vn 0.9352 -0.3541 0.0000
vn 0.9351 -0.3543 0.0000
vn -0.7906 0.6123 0.0000
vn 0.3827 -0.9239 0.0000
vn 0.9699 -0.2435 0.0000
vn 0.9699 -0.2436 0.0000
vn -0.9474 -0.3201 0.0000
vn 0.0812 -0.9967 0.0000
vn -0.6474 0.7622 0.0000
vn -0.4856 0.8742 0.0000
vn -0.0001 0.0000 1.0000
vn -0.9999 -0.0122 0.0000
vn -0.9979 0.0648 0.0000
vn -0.9979 0.0649 0.0000
vn -0.9893 0.1459 0.0000
vn -0.9699 0.2435 0.0000
vn -0.9699 0.2436 0.0000
vn -0.9352 0.3540 0.0000
vn -0.9352 0.3541 0.0000
vn -0.9315 -0.3638 0.0000
vn -0.9602 -0.2794 0.0000
vn -0.9602 -0.2793 0.0000
vn -0.9734 -0.2291 0.0000
vn -0.9734 -0.2290 0.0000
vn -0.9824 -0.1866 0.0000
vn -0.9914 -0.1306 0.0000
vn -0.1261 -0.9920 0.0000
vn -0.4108 -0.9117 0.0000
vn -0.6597 -0.7515 0.0000
vn -0.7157 -0.6984 0.0000
vn -0.9972 -0.0747 0.0000
vn -0.9972 -0.0748 0.0000
vn -0.7579 -0.6523 0.0000
vn -0.7934 -0.6087 0.0000
vn -0.3827 0.9239 0.0000
vn 0.6473 -0.7622 0.0000
vn -0.9239 -0.3827 0.0000
vn 0.4857 -0.8741 0.0000
vn 0.4856 -0.8742 0.0000
vn 0.9315 0.3638 0.0000
vn 0.9315 0.3637 0.0000
vn -0.2812 -0.9597 0.0000
vn 0.9914 0.1306 0.0000
vn 0.9893 -0.1459 0.0000
vn 0.9979 -0.0648 0.0000
vn -0.8962 -0.4436 0.0000
vn -0.8503 -0.5263 0.0000
vn -0.8502 -0.5264 0.0000
vn -0.8765 -0.4813 0.0000
vn -0.8765 -0.4814 0.0000
vn 0.9699 -0.2437 0.0000
vn -0.8266 -0.5627 0.0000
vn 0.2747 -0.9615 0.0000
vn 0.9239 0.3827 0.0000
vn -0.8774 0.4797 0.0000
vn -0.8774 0.4798 0.0000
usemtl Default_OBJ.016
s 1
f 1//1 2//1 3//1
f 3//1 4//1 1//1
f 1//1 4//1 5//1
f 5//1 4//1 6//1
f 6//1 4//1 7//1
f 7//1 4//1 8//1
f 8//1 4//1 9//1
f 9//1 4//1 10//1
f 10//1 4//1 11//1
f 11//1 4//1 12//1
f 12//1 4//1 13//1
f 14//1 15//1 13//1
f 15//1 16//1 17//1
f 15//1 18//1 16//1
f 15//1 19//1 18//1
f 15//1 20//1 19//1
f 15//1 21//1 20//1
f 17//1 22//1 15//1
f 15//1 23//1 21//1
f 15//1 24//1 23//1
f 15//1 14//1 24//1
f 13//1 25//1 14//1
f 13//1 4//1 25//1
f 22//1 26//1 15//1
f 27//1 28//1 15//1
f 29//2 30//3 31//2
f 15//1 32//1 33//1
f 15//1 34//1 32//1
f 15//1 30//1 34//1
f 33//1 27//1 15//1
f 15//1 35//1 30//1
f 15//1 26//1 35//1
f 36//4 37//4 38//4
f 37//4 39//4 38//4
f 38//4 39//4 40//4
f 40//4 39//4 41//4
f 41//4 39//4 42//4
f 42//4 39//4 43//4
f 43//4 39//4 44//4
f 44//4 39//4 45//4
f 45//4 39//4 46//4
f 46//4 39//4 47//4
f 47//4 39//4 48//4
f 48//4 39//4 49//4
f 38//4 50//4 51//4
f 38//4 52//4 50//4
f 38//4 53//4 52//4
f 38//4 54//4 53//4
f 38//4 55//4 54//4
f 51//4 56//4 38//4
f 38//4 57//4 55//4
f 38//4 58//4 57//4
f 38//4 31//4 58//4
f 59//4 60//4 38//4
f 38//4 60//4 36//4
f 56//4 59//4 38//4
f 61//4 62//4 38//4
f 63//4 61//4 38//4
f 64//4 63//4 38//4
f 38//4 65//4 64//4
f 65//4 66//4 64//4
f 40//5 12//5 38//5
f 67//6 68//6 69//6
f 70//4 71//4 72//4
f 73//4 74//4 70//4
f 70//4 75//4 76//4
f 77//4 73//4 70//4
f 70//4 76//4 77//4
f 78//4 79//4 70//4
f 80//4 78//4 70//4
f 74//4 80//4 70//4
f 23//7 51//8 21//7
f 79//4 81//4 70//4
f 81//4 67//4 70//4
f 20//9 51//10 50//10
f 67//4 69//4 70//4
f 19//11 20//11 50//11
f 82//4 83//4 70//4
f 69//4 82//4 70//4
f 70//4 84//4 75//4
f 70//4 72//4 84//4
f 54//12 16//12 18//12
f 22//13 55//13 57//13
f 16//14 54//14 55//14
f 58//15 22//16 57//15
f 85//17 77//17 86//17
f 17//13 55//13 22//13
f 58//18 31//18 35//18
f 62//19 30//20 29//19
f 35//18 26//18 58//18
f 61//21 32//22 62//21
f 30//3 35//3 31//2
f 63//23 32//23 61//23
f 66//24 28//25 64//24
f 32//23 63//23 33//23
f 64//26 33//26 63//26
f 38//27 15//28 65//27
f 13//28 15//28 38//27
f 12//29 40//30 41//30
f 41//30 11//29 12//29
f 12//5 13//5 38//5
f 10//31 11//31 41//31
f 41//31 42//31 10//31
f 43//32 9//32 42//32
f 42//32 9//32 10//32
f 44//33 9//34 43//33
f 8//34 9//34 44//33
f 87//35 80//35 88//35
f 45//36 7//37 44//36
f 7//37 8//37 44//36
f 6//38 7//38 45//38
f 45//38 46//38 6//38
f 46//39 47//39 5//39
f 5//39 6//39 46//39
f 47//40 48//40 1//40
f 1//40 5//40 47//40
f 1//41 48//41 49//41
f 49//41 2//41 1//41
f 2//42 49//42 39//42
f 39//42 3//42 2//42
f 72//43 89//44 84//43
f 39//45 37//45 4//45
f 4//45 3//45 39//45
f 36//46 25//46 4//46
f 4//46 37//46 36//46
f 90//47 91//47 82//48
f 14//49 25//49 60//49
f 60//49 25//49 36//49
f 24//50 14//50 60//50
f 60//50 59//50 24//50
f 59//51 56//51 23//51
f 23//51 24//51 59//51
f 51//8 23//7 56//8
f 21//9 51//10 20//9
f 84//52 89//53 75//52
f 50//11 52//11 19//11
f 53//54 19//54 52//54
f 76//17 86//17 77//17
f 75//55 86//56 76//55
f 19//54 53//54 18//54
f 18//12 53//12 54//12
f 55//14 17//14 16//14
f 26//16 22//16 58//15
f 92//57 93//58 94//57
f 95//59 94//59 93//59
f 34//20 30//20 62//19
f 32//22 34//22 62//21
f 33//26 64//26 27//26
f 28//25 27//25 64//24
f 96//60 97//60 98//60
f 74//35 88//35 80//35
f 73//61 88//62 74//61
f 99//63 68//63 67//64
f 90//6 69//6 68//6
f 100//65 101//65 102//65
f 103//66 104//66 105//66
f 67//64 81//64 99//63
f 81//67 79//67 99//68
f 106//69 107//69 108//69
f 109//66 103//66 105//66
f 110//70 111//70 112//70
f 113//71 114//71 100//71
f 100//71 114//71 101//71
f 115//72 116//72 114//72
f 117//1 112//1 103//1
f 98//1 103//1 96//1
f 103//1 98//1 117//1
f 112//1 117//1 110//1
f 110//1 117//1 118//1
f 118//1 117//1 119//1
f 119//1 117//1 120//1
f 120//1 117//1 93//1
f 93//1 117//1 121//1
f 121//1 117//1 122//1
f 122//1 117//1 123//1
f 123//1 117//1 124//1
f 124//1 117//1 125//1
f 125//1 117//1 126//1
f 126//1 117//1 127//73
f 128//74 129//74 130//74
f 131//75 129//75 128//76
f 128//76 132//76 131//75
f 133//77 134//77 131//77
f 133//78 135//78 136//79
f 137//80 136//81 135//80
f 138//1 86//1 139//1
f 114//72 113//72 115//72
f 107//82 97//82 96//82
f 138//1 85//1 86//1
f 140//69 108//69 107//69
f 140//83 141//83 108//84
f 142//85 143//86 141//85
f 138//1 144//1 87//1
f 89//1 145//1 138//1
f 138//1 87//1 88//1
f 146//87 143//87 142//87
f 142//87 147//87 146//87
f 148//88 149//88 146//88
f 118//89 111//89 110//89
f 138//1 150//1 144//1
f 138//1 109//1 151//1
f 138//1 151//1 91//1
f 119//90 120//90 92//90
f 131//77 132//77 133//77
f 91//1 90//1 138//1
f 92//57 120//58 93//58
f 122//91 152//91 121//91
f 138//1 153//1 85//1
f 139//1 89//1 138//1
f 138//1 88//1 153//1
f 90//1 68//1 138//1
f 138//1 103//1 109//1
f 68//1 99//1 138//1
f 99//1 150//1 138//1
f 122//92 154//92 152//92
f 97//4 104//4 155//4
f 146//88 147//88 148//88
f 130//93 149//94 148//93
f 156//95 154//95 124//95
f 136//79 134//79 133//78
f 155//4 104//4 157//4
f 157//4 104//4 158//4
f 158//4 104//4 159//4
f 159//4 104//4 160//4
f 160//4 104//4 156//4
f 156//4 104//4 154//4
f 154//4 104//4 152//4
f 152//4 104//4 95//4
f 95//4 104//4 94//4
f 94//4 104//4 92//4
f 92//4 104//4 161//4
f 104//4 162//4 161//4
f 163//4 111//4 162//4
f 162//4 104//4 163//4
f 125//96 156//96 124//96
f 70//97 116//97 115//97
f 115//97 138//97 70//97
f 100//1 102//1 103//1
f 115//1 103//1 138//1
f 114//4 116//4 104//4
f 104//4 116//4 70//4
f 151//98 83//98 82//98
f 28//99 70//99 138//99
f 28//99 66//99 70//99
f 15//1 28//1 138//1
f 164//1 15//1 138//1
f 145//1 164//1 138//1
f 151//100 109//100 105//101
f 29//4 31//4 38//4
f 65//4 70//4 66//4
f 62//4 29//4 38//4
f 105//4 104//4 70//4
f 83//4 105//4 70//4
f 70//4 65//4 71//4
f 145//102 72//103 71//103
f 161//104 118//104 119//104
f 92//90 161//90 119//90
f 75//55 139//56 86//56
f 89//53 139//53 75//52
f 73//105 77//105 85//105
f 122//92 123//92 154//92
f 123//95 124//95 154//95
f 79//106 78//106 144//106
f 87//107 144//107 78//107
f 117//108 98//108 155//108
f 155//60 98//60 97//60
f 78//107 80//107 87//107
f 126//109 127//109 158//110
f 158//111 127//112 117//112
f 117//112 157//111 158//111
f 155//108 157//108 117//108
f 99//68 79//67 150//113
f 144//106 150//106 79//106
f 111//89 118//89 162//89
f 162//104 118//104 161//104
f 93//59 121//59 95//59
f 82//48 69//48 90//47
f 95//91 121//91 152//91
f 156//96 125//96 160//96
f 126//114 159//114 160//114
f 160//114 125//114 126//114
f 158//110 159//110 126//109
f 112//115 163//115 104//115
f 104//115 103//115 112//115
f 111//70 163//70 112//70
f 105//101 83//101 151//100
f 89//44 72//43 145//44
f 71//103 164//102 145//102
f 153//62 88//62 73//61
f 85//105 153//105 73//105
f 82//98 91//98 151//98
f 15//116 164//116 71//116
f 71//116 65//116 15//116
f 103//1 113//1 100//1
f 103//1 115//1 113//1
f 103//1 140//1 107//1
f 103//1 141//1 140//1
f 103//1 142//1 141//1
f 103//1 147//1 142//1
f 103//1 148//1 147//1
f 103//1 130//1 148//1
f 103//1 128//1 130//1
f 103//1 132//1 128//1
f 103//1 133//1 132//1
f 103//1 135//1 133//1
f 103//1 102//1 137//1
f 103//1 137//1 135//1
f 107//1 96//1 103//1
f 104//4 165//4 101//4
f 101//4 114//4 104//4
f 104//4 166//4 165//4
f 104//4 131//4 134//4
f 104//4 129//4 131//4
f 104//4 167//4 129//4
f 134//4 136//4 104//4
f 104//4 149//4 167//4
f 104//4 146//4 149//4
f 104//4 143//4 146//4
f 104//4 168//4 143//4
f 104//4 108//4 168//4
f 104//4 106//4 108//4
f 104//4 97//4 106//4
f 136//4 166//4 104//4
f 137//80 166//81 136//81
f 137//117 102//117 165//118
f 165//118 166//118 137//117
f 101//65 165//65 102//65
f 107//82 106//82 97//82
f 141//83 168//84 108//84
f 168//86 141//85 143//86
f 149//94 130//93 167//94
f 167//74 130//74 129//74
