# Blender v3.1.2 OBJ File: ''
# www.blender.org
mtllib arm2_grab_left2.mtl
o Shiny_Snaget_(8)_Shiny_Snaget_(8).001
v 4.363486 6.476004 0.500001
v 4.344100 6.473102 0.500001
v 4.383146 6.476953 0.500001
v 4.402671 6.476009 0.500001
v 4.325025 6.468339 0.500001
v 4.306577 6.461693 0.500001
v 4.288833 6.453348 0.500001
v 4.271978 6.443228 0.500001
v 4.256217 6.431572 0.500001
v 4.241645 6.418341 0.500001
v 4.228506 6.403868 0.500001
v 4.216762 6.388059 0.500001
v 4.206751 6.371207 0.500001
v 4.198327 6.353481 0.500001
v 4.441149 6.468297 0.500001
v 4.549386 6.388070 0.500001
v 4.559506 6.371214 0.500001
v 4.537730 6.403830 0.500001
v 4.524499 6.418402 0.500001
v 4.510026 6.431541 0.500001
v 4.494216 6.443285 0.500001
v 4.567851 6.353470 0.500001
v 4.477365 6.453297 0.500001
v 4.459640 6.461720 0.500001
v 4.422154 6.473135 0.500001
v 4.574497 6.335022 0.500001
v 4.567878 6.200408 0.500001
v 4.574455 6.218898 0.500001
v 4.582167 6.257377 0.500001
v 4.579292 6.237894 0.500001
v 4.583111 6.276902 0.500001
v 4.582162 6.296562 0.500001
v 4.579259 6.315948 0.500001
v 4.402671 6.476009 -0.499999
v 4.422154 6.473135 -0.499999
v 4.206751 6.371207 -0.499999
v 4.383146 6.476953 -0.499999
v 4.216762 6.388059 -0.499999
v 4.228506 6.403868 -0.499999
v 4.241645 6.418341 -0.499999
v 4.256217 6.431572 -0.499999
v 4.271978 6.443228 -0.499999
v 4.288833 6.453348 -0.499999
v 4.306577 6.461693 -0.499999
v 4.325025 6.468339 -0.499999
v 4.344100 6.473102 -0.499999
v 4.363486 6.476004 -0.499999
v 4.582162 6.296562 -0.499999
v 4.579259 6.315948 -0.499999
v 4.510026 6.431541 -0.499999
v 4.494216 6.443285 -0.499999
v 4.524499 6.418402 -0.499999
v 4.537730 6.403830 -0.499999
v 4.549386 6.388070 -0.499999
v 4.559506 6.371214 -0.499999
v 4.477365 6.453297 -0.499999
v 4.567851 6.353470 -0.499999
v 4.574497 6.335022 -0.499999
v 4.441149 6.468297 -0.499999
v 4.459640 6.461720 -0.499999
v 4.583111 6.276902 -0.499999
v 4.582167 6.257377 -0.499999
v 4.579292 6.237894 -0.499999
v 4.574455 6.218898 -0.499999
v 4.198327 6.353481 -0.499999
v 4.567878 6.200408 -0.499999
v 4.424666 4.827182 -0.499999
v 4.424666 4.827182 0.500001
v 4.420397 4.809035 0.500001
v 4.430331 4.862287 0.500001
v 4.428060 4.845043 -0.499999
v 4.430331 4.862287 -0.499999
v 4.431573 4.878874 0.500001
v 3.649216 5.023368 -0.499999
v 4.108658 5.091753 -0.499999
v 3.643847 5.004919 -0.499999
v 3.655439 5.041789 -0.499999
v 4.410699 4.962531 0.500001
v 4.410699 4.962531 -0.499999
v 4.403733 4.968447 0.500001
v 4.396078 4.972700 0.500001
v 4.396078 4.972700 -0.499999
v 3.633912 4.951667 -0.499999
v 3.636184 4.968910 -0.499999
v 3.639577 4.986771 -0.499999
v 3.633433 4.904781 -0.499999
v 3.635423 4.891293 -0.499999
v 3.632479 4.919464 -0.499999
v 3.632669 4.935080 -0.499999
v 3.638487 4.879092 -0.499999
v 3.642571 4.868308 -0.499999
v 3.660511 4.845507 -0.499999
v 3.653545 4.851423 -0.499999
v 3.647621 4.859072 -0.499999
v 3.662570 5.060050 -0.499999
v 3.668166 4.841254 -0.499999
v 4.431764 4.894490 -0.499999
v 4.431764 4.894490 0.500001
v 4.430810 4.909173 -0.499999
v 4.430810 4.909173 0.500001
v 4.428821 4.922660 -0.499999
v 4.428821 4.922660 0.500001
v 4.425756 4.934862 0.500001
v 4.425756 4.934862 -0.499999
v 4.421672 4.945646 0.500001
v 4.408804 4.772165 -0.499999
v 4.408804 4.772165 0.500001
v 4.401674 4.753903 0.500001
v 4.401674 4.753903 -0.499999
v 4.415028 4.790585 0.500001
v 4.415028 4.790585 -0.499999
v 4.403733 4.968447 -0.499999
v 4.428060 4.845043 0.500001
v 4.243004 4.603148 -0.499999
v 4.243004 4.603148 0.500001
v 4.108658 5.091753 0.500001
v 3.668166 4.841254 0.500001
v 3.662570 5.060050 0.500001
v 3.655439 5.041789 0.500001
v 4.251424 4.600742 0.500001
v 4.260534 4.600000 0.500001
v 4.270131 4.601220 0.500001
v 4.280233 4.604180 0.500001
v 4.290746 4.608917 0.500001
v 4.393803 4.735949 0.500001
v 4.385179 4.718523 0.500001
v 4.301540 4.615378 0.500001
v 4.312484 4.623509 0.500001
v 4.323541 4.633216 0.500001
v 4.334449 4.644393 0.500001
v 4.345299 4.657001 0.500001
v 4.355886 4.670800 0.500001
v 4.366116 4.685829 0.500001
v 4.375929 4.701680 0.500001
v 3.639577 4.986771 0.500001
v 3.643847 5.004919 0.500001
v 3.636184 4.968910 0.500001
v 3.632669 4.935080 0.500001
v 3.633912 4.951667 0.500001
v 3.632479 4.919464 0.500001
v 3.633433 4.904781 0.500001
v 3.638487 4.879092 0.500001
v 3.635423 4.891293 0.500001
v 3.647621 4.859072 0.500001
v 3.653545 4.851423 0.500001
v 3.660511 4.845507 0.500001
v 3.642571 4.868308 0.500001
v 3.649216 5.023368 0.500001
v 4.393803 4.735949 -0.499999
v 4.290746 4.608917 -0.499999
v 4.301540 4.615378 -0.499999
v 4.385179 4.718523 -0.499999
v 4.375929 4.701680 -0.499999
v 4.366116 4.685829 -0.499999
v 4.355886 4.670800 -0.499999
v 4.345299 4.657001 -0.499999
v 4.334449 4.644393 -0.499999
v 4.323541 4.633216 -0.499999
v 4.312484 4.623509 -0.499999
v 4.280233 4.604180 -0.499999
v 4.270131 4.601220 -0.499999
v 4.260534 4.600000 -0.499999
v 4.251424 4.600742 -0.499999
v 4.416622 4.954881 0.500001
v 4.416622 4.954881 -0.499999
v 4.421672 4.945646 -0.499999
v 4.431573 4.878874 -0.499999
v 4.420397 4.809035 -0.499999
vn 0.0000 0.0000 1.0000
vn 0.0000 0.0000 -1.0000
vn 0.9890 0.1481 0.0000
vn 0.9734 -0.2290 0.0000
vn 0.9914 -0.1306 0.0000
vn 0.9972 -0.0747 0.0000
vn 0.6474 0.7622 0.0000
vn 0.6473 0.7622 0.0000
vn 0.4857 0.8741 0.0000
vn 0.4856 0.8742 0.0000
vn 0.9999 -0.0122 0.0000
vn 0.9999 -0.0123 0.0000
vn 0.9979 0.0649 0.0000
vn 0.9979 0.0648 0.0000
vn 0.9893 0.1459 0.0000
vn 0.9699 0.2436 0.0000
vn -0.2423 0.9702 0.0000
vn 0.9352 0.3541 0.0000
vn 0.9351 0.3543 0.0000
vn 0.9315 -0.3637 0.0000
vn 0.9474 -0.3201 0.0000
vn 0.9602 -0.2794 0.0000
vn 0.9824 -0.1867 0.0000
vn 0.8040 0.5946 0.0000
vn 0.9049 0.4256 0.0000
vn 0.5108 0.8597 0.0000
vn 0.9408 0.3389 0.0000
vn 0.5963 0.8028 0.0000
vn 0.6722 0.7404 0.0000
vn 0.7403 0.6722 0.0000
vn 0.9988 0.0482 0.0000
vn 0.8573 0.5147 0.0000
vn 0.8574 0.5147 0.0000
vn 0.9988 -0.0483 0.0000
vn 0.9893 -0.1460 0.0000
vn 0.9422 -0.3351 0.0000
vn 0.9422 -0.3352 0.0000
vn 0.9702 0.2422 0.0000
vn -0.9032 0.4292 0.0000
vn -0.3827 -0.9239 0.0000
vn -0.8597 0.5108 0.0000
vn -0.8597 0.5107 0.0000
vn -0.8028 0.5963 0.0000
vn -0.7404 0.6722 0.0000
vn 0.9691 -0.2468 0.0000
vn -0.6722 0.7404 0.0000
vn -0.5946 0.8040 0.0000
vn -0.5148 0.8573 0.0000
vn -0.4256 0.9049 0.0000
vn 0.3827 0.9239 0.0000
vn -0.3389 0.9408 0.0000
vn -0.1480 0.9890 0.0000
vn -0.1481 0.9890 0.0000
vn 0.9239 -0.3827 0.0000
vn -0.0482 0.9988 0.0000
vn 0.0483 0.9988 0.0000
vn 0.1459 0.9893 0.0000
vn 0.2468 0.9691 0.0000
vn 0.3351 0.9422 0.0000
vn 0.4292 0.9032 0.0000
vn -0.2748 -0.9615 0.0000
vn -0.9979 -0.0648 0.0000
vn 0.5136 -0.8580 0.0000
vn 0.5964 -0.8027 0.0000
vn 0.9159 -0.4015 0.0000
vn -0.6473 -0.7622 0.0000
vn 0.4108 -0.9117 0.0000
vn -0.9474 0.3201 0.0000
vn -0.9474 0.3200 0.0000
vn -0.9315 0.3638 0.0000
vn -0.4856 -0.8742 0.0000
vn -0.4857 -0.8741 0.0000
vn -0.9824 0.1866 0.0000
vn 0.8765 -0.4814 0.0000
vn -0.9734 0.2290 0.0000
vn -0.9914 0.1306 0.0000
vn -0.9602 0.2794 0.0000
vn -0.0812 -0.9967 0.0000
vn 0.2812 -0.9597 0.0000
vn 0.6597 -0.7515 0.0000
vn 0.7157 -0.6984 0.0000
vn -0.9999 0.0122 0.0000
vn 0.8962 -0.4436 0.0000
vn -0.9972 0.0747 0.0000
vn -0.8774 -0.4798 0.0000
vn -0.8774 -0.4797 0.0000
vn -0.9352 -0.3541 0.0000
vn -0.9352 -0.3542 0.0000
vn 0.8502 -0.5264 0.0000
vn 0.8503 -0.5263 0.0000
vn -0.9239 0.3827 0.0000
vn -0.9893 -0.1459 0.0000
vn -0.7906 -0.6123 0.0000
vn -0.9699 -0.2436 0.0000
vn 0.8774 0.4797 0.0000
vn 0.7907 0.6122 0.0000
vn 0.1261 -0.9920 0.0000
vn 0.7580 -0.6523 0.0000
vn 0.7934 -0.6087 0.0000
vn 0.8267 -0.5627 0.0000
usemtl Default_OBJ.014
s 1
f 1//1 2//1 3//1
f 4//1 3//1 2//1
f 4//1 2//1 5//1
f 4//1 5//1 6//1
f 4//1 6//1 7//1
f 4//1 7//1 8//1
f 4//1 8//1 9//1
f 4//1 9//1 10//1
f 4//1 10//1 11//1
f 4//1 11//1 12//1
f 4//1 12//1 13//1
f 14//1 15//1 13//1
f 16//1 14//1 17//1
f 18//1 14//1 16//1
f 19//1 14//1 18//1
f 20//1 14//1 19//1
f 21//1 14//1 20//1
f 22//1 17//1 14//1
f 23//1 14//1 21//1
f 24//1 14//1 23//1
f 15//1 14//1 24//1
f 25//1 13//1 15//1
f 4//1 13//1 25//1
f 26//1 22//1 14//1
f 27//1 28//1 14//1
f 29//1 14//1 30//1
f 31//1 14//1 29//1
f 32//1 14//1 31//1
f 28//1 30//1 14//1
f 33//1 14//1 32//1
f 26//1 14//1 33//1
f 34//2 35//2 36//2
f 37//2 34//2 36//2
f 37//2 36//2 38//2
f 37//2 38//2 39//2
f 37//2 39//2 40//2
f 37//2 40//2 41//2
f 37//2 41//2 42//2
f 37//2 42//2 43//2
f 37//2 43//2 44//2
f 37//2 44//2 45//2
f 37//2 45//2 46//2
f 37//2 46//2 47//2
f 32//3 48//3 49//3
f 50//2 36//2 51//2
f 52//2 36//2 50//2
f 53//2 36//2 52//2
f 54//2 36//2 53//2
f 55//2 36//2 54//2
f 56//2 51//2 36//2
f 57//2 36//2 55//2
f 58//2 36//2 57//2
f 49//2 36//2 58//2
f 59//2 60//2 36//2
f 59//2 36//2 35//2
f 60//2 56//2 36//2
f 61//2 62//2 36//2
f 62//2 63//2 36//2
f 63//2 64//2 36//2
f 65//2 36//2 64//2
f 66//2 65//2 64//2
f 67//4 68//4 69//4
f 70//5 71//5 72//5
f 73//6 70//6 72//6
f 74//2 75//2 76//2
f 77//2 75//2 74//2
f 78//7 79//8 80//7
f 81//9 80//9 82//10
f 83//2 84//2 75//2
f 85//2 75//2 84//2
f 86//2 75//2 87//2
f 88//2 75//2 86//2
f 89//2 75//2 88//2
f 90//2 75//2 91//2
f 83//2 75//2 89//2
f 87//2 75//2 90//2
f 92//2 93//2 75//2
f 94//2 75//2 93//2
f 91//2 75//2 94//2
f 76//2 75//2 85//2
f 95//2 75//2 77//2
f 96//2 92//2 75//2
f 97//11 98//12 73//12
f 97//13 99//13 98//14
f 100//14 98//14 99//13
f 101//15 102//15 99//15
f 103//16 102//16 104//16
f 5//17 46//17 45//17
f 104//18 105//19 103//19
f 106//20 107//20 108//20
f 106//20 108//20 109//20
f 107//21 106//21 110//21
f 111//21 110//21 106//21
f 111//22 69//22 110//22
f 68//23 67//23 71//23
f 18//24 54//24 53//24
f 100//15 99//15 102//15
f 55//25 22//25 57//25
f 51//26 23//26 21//26
f 22//27 58//27 57//27
f 20//28 50//28 21//28
f 52//29 50//29 19//29
f 19//30 18//30 52//30
f 54//24 18//24 16//24
f 32//31 61//31 48//31
f 112//10 82//10 80//9
f 54//32 16//33 55//32
f 17//33 55//32 16//33
f 61//34 29//34 62//34
f 55//25 17//25 22//25
f 29//35 63//35 62//35
f 58//27 22//27 26//27
f 66//36 64//36 27//37
f 58//38 26//38 49//38
f 33//38 49//38 26//38
f 13//39 36//39 14//39
f 65//39 14//39 36//39
f 71//23 113//23 68//23
f 33//3 32//3 49//3
f 114//40 115//40 96//40
f 38//41 36//41 13//42
f 70//5 113//5 71//5
f 32//31 31//31 61//31
f 11//43 39//43 38//43
f 61//34 31//34 29//34
f 39//44 11//44 40//44
f 10//44 40//44 11//44
f 63//35 29//35 30//35
f 30//45 28//45 63//45
f 64//45 63//45 28//45
f 9//46 41//46 40//46
f 9//46 40//46 10//46
f 64//36 28//37 27//37
f 41//47 9//47 42//47
f 8//47 42//47 9//47
f 101//16 104//16 102//16
f 8//48 7//48 42//48
f 43//48 42//48 7//48
f 38//41 13//42 12//42
f 7//49 44//49 43//49
f 12//43 11//43 38//43
f 116//50 81//50 82//50
f 116//50 82//50 75//50
f 5//51 45//51 44//51
f 115//40 117//40 96//40
f 82//2 112//2 114//2
f 82//2 114//2 75//2
f 1//52 47//53 46//53
f 75//54 27//54 116//54
f 66//54 27//54 75//54
f 7//49 6//49 44//49
f 37//55 47//55 3//55
f 1//55 3//55 47//55
f 118//1 119//1 116//1
f 27//1 14//1 116//1
f 118//1 116//1 14//1
f 6//51 5//51 44//51
f 3//56 34//56 37//56
f 5//17 2//17 46//17
f 49//2 48//2 36//2
f 75//2 65//2 66//2
f 48//2 61//2 36//2
f 114//2 96//2 75//2
f 65//2 75//2 95//2
f 2//52 1//52 46//53
f 34//57 25//57 35//57
f 3//56 4//56 34//56
f 59//58 35//58 15//58
f 25//58 15//58 35//58
f 4//57 25//57 34//57
f 59//59 15//59 60//59
f 24//59 60//59 15//59
f 56//60 60//60 23//60
f 24//60 23//60 60//60
f 23//26 51//26 56//26
f 51//28 21//28 50//28
f 20//29 19//29 50//29
f 18//30 53//30 52//30
f 115//61 114//61 120//61
f 121//1 122//1 116//1
f 122//1 123//1 116//1
f 123//1 124//1 116//1
f 125//1 116//1 126//1
f 124//1 127//1 116//1
f 127//1 128//1 116//1
f 128//1 129//1 116//1
f 129//1 130//1 116//1
f 130//1 131//1 116//1
f 131//1 132//1 116//1
f 132//1 133//1 116//1
f 133//1 134//1 116//1
f 126//1 116//1 134//1
f 120//1 121//1 116//1
f 115//1 120//1 116//1
f 135//1 116//1 136//1
f 137//1 116//1 135//1
f 138//1 116//1 139//1
f 139//1 116//1 137//1
f 138//1 140//1 116//1
f 141//1 116//1 140//1
f 142//1 116//1 143//1
f 144//1 145//1 116//1
f 146//1 116//1 145//1
f 147//1 144//1 116//1
f 143//1 116//1 141//1
f 148//1 136//1 116//1
f 119//1 148//1 116//1
f 117//1 116//1 146//1
f 115//1 116//1 117//1
f 142//1 147//1 116//1
f 114//2 109//2 149//2
f 88//62 86//62 140//62
f 127//63 150//63 151//63
f 127//64 151//64 128//64
f 114//2 149//2 152//2
f 114//2 152//2 153//2
f 114//2 153//2 154//2
f 114//2 154//2 155//2
f 114//2 155//2 156//2
f 114//2 156//2 157//2
f 114//2 157//2 158//2
f 114//2 158//2 159//2
f 114//2 159//2 151//2
f 114//2 151//2 150//2
f 114//2 150//2 160//2
f 114//2 160//2 161//2
f 162//2 163//2 161//2
f 114//2 161//2 163//2
f 109//65 108//65 149//65
f 146//66 145//66 92//66
f 150//67 124//67 123//67
f 74//68 148//69 77//68
f 119//70 118//70 77//70
f 117//71 92//72 96//72
f 119//69 77//68 148//69
f 95//70 77//70 118//70
f 137//73 85//73 84//73
f 153//74 152//74 134//74
f 76//75 85//75 136//75
f 137//76 84//76 139//76
f 136//77 148//77 76//77
f 120//78 163//78 162//78
f 85//73 137//73 135//73
f 135//75 136//75 85//75
f 123//79 161//79 160//79
f 148//77 74//77 76//77
f 160//67 150//67 123//67
f 83//76 139//76 84//76
f 128//64 151//64 159//64
f 158//80 129//80 159//80
f 128//80 159//80 129//80
f 130//81 129//81 157//81
f 158//81 157//81 129//81
f 88//82 140//82 89//82
f 149//83 125//83 152//83
f 126//83 152//83 125//83
f 139//84 83//84 89//84
f 91//85 144//86 147//86
f 125//65 149//65 108//65
f 142//87 91//88 147//87
f 153//89 134//90 154//89
f 92//72 117//71 146//71
f 141//62 140//62 86//62
f 138//82 89//82 140//82
f 163//61 120//61 114//61
f 152//74 126//74 134//74
f 89//84 138//84 139//84
f 142//87 90//88 91//88
f 14//91 65//91 95//91
f 118//91 14//91 95//91
f 164//1 81//1 105//1
f 78//1 80//1 164//1
f 81//1 164//1 80//1
f 116//1 105//1 81//1
f 141//92 86//92 143//92
f 144//93 94//93 145//93
f 93//93 145//93 94//93
f 110//1 116//1 107//1
f 69//1 116//1 110//1
f 68//1 116//1 69//1
f 113//1 116//1 68//1
f 70//1 116//1 113//1
f 73//1 116//1 70//1
f 98//1 116//1 73//1
f 100//1 116//1 98//1
f 102//1 116//1 100//1
f 103//1 116//1 102//1
f 105//1 116//1 103//1
f 108//1 107//1 116//1
f 108//1 116//1 125//1
f 91//85 94//85 144//86
f 142//94 143//94 90//94
f 87//94 90//94 143//94
f 165//2 114//2 79//2
f 112//2 79//2 114//2
f 166//2 114//2 165//2
f 93//66 92//66 145//66
f 143//92 86//92 87//92
f 99//2 114//2 101//2
f 97//2 114//2 99//2
f 167//2 114//2 97//2
f 104//2 101//2 114//2
f 72//2 114//2 167//2
f 71//2 114//2 72//2
f 67//2 114//2 71//2
f 168//2 114//2 67//2
f 111//2 114//2 168//2
f 106//2 114//2 111//2
f 109//2 114//2 106//2
f 166//2 104//2 114//2
f 166//18 105//19 104//18
f 164//95 105//95 165//95
f 166//95 165//95 105//95
f 78//96 164//96 79//96
f 165//96 79//96 164//96
f 112//8 80//7 79//8
f 120//78 162//78 121//78
f 122//97 121//97 161//97
f 162//97 161//97 121//97
f 161//79 123//79 122//79
f 168//22 69//22 111//22
f 69//4 168//4 67//4
f 127//63 124//63 150//63
f 73//6 72//6 167//6
f 73//12 167//11 97//11
f 130//98 157//98 156//98
f 131//98 130//98 156//98
f 155//99 132//99 131//99
f 155//99 131//99 156//99
f 132//100 155//100 133//100
f 154//100 133//100 155//100
f 154//89 134//90 133//90
