# Blender v3.1.2 OBJ File: ''
# www.blender.org
mtllib arm_grab_left.mtl
o Shiny_Snaget_(4)_Shiny_Snaget_(4).001
v -0.300000 8.119956 0.400001
v -0.300000 7.319955 0.400001
v -0.300000 7.319955 -0.399999
v -0.300000 8.119956 -0.399999
v -1.396375 7.319955 0.400001
v -1.900000 8.098956 0.400001
v -1.900000 8.119956 0.400001
v -1.933800 8.112955 -0.399999
v -2.569896 6.577241 -0.399999
v -2.569896 6.577241 0.400001
v -1.933800 8.112955 0.400001
v -1.396375 7.319955 -0.399999
v -1.900000 8.098956 -0.399999
v -1.900000 8.119956 -0.399999
v -2.025944 5.800000 -0.399999
v -2.025944 5.800000 0.400001
vn 1.0000 0.0000 0.0000
vn -0.0000 -0.0000 1.0000
vn -0.9239 0.3827 0.0000
vn 0.0000 -1.0000 0.0000
vn 0.0000 0.0000 -1.0000
vn -1.0000 0.0000 0.0000
vn 0.0000 1.0000 0.0000
vn 0.3826 0.9239 0.0000
vn 0.9239 -0.3827 0.0000
vn -0.8193 -0.5734 0.0000
usemtl Default_OBJ.004
s 1
f 1//1 2//1 3//1
f 1//1 3//1 4//1
f 5//2 1//2 6//2
f 2//2 1//2 5//2
f 7//2 6//2 1//2
f 8//3 9//3 10//3
f 8//3 10//3 11//3
f 2//4 5//4 12//4
f 2//4 12//4 3//4
f 4//5 3//5 12//5
f 4//5 12//5 13//5
f 4//5 13//5 14//5
f 14//6 13//6 6//6
f 14//6 6//6 7//6
f 4//7 14//7 7//7
f 4//7 7//7 1//7
f 8//5 13//5 9//5
f 13//5 12//5 9//5
f 15//5 9//5 12//5
f 13//8 8//8 11//8
f 13//8 11//8 6//8
f 5//9 16//9 15//9
f 5//9 15//9 12//9
f 15//10 16//10 10//10
f 15//10 10//10 9//10
f 16//2 5//2 10//2
f 11//2 10//2 6//2
f 6//2 10//2 5//2
