# Blender v3.1.2 OBJ File: ''
# www.blender.org
mtllib untitled.mtl
o Shiny_Snaget_Shiny_Snaget.001
v -1.046200 12.896153 -0.339896
v -0.951100 12.896153 -0.308996
v -1.100000 12.896153 0.000004
v -1.000000 12.896153 0.000004
v -0.951100 12.896153 0.309004
v -1.046200 12.896153 0.339904
v 1.046200 16.080770 0.339906
v 0.951100 16.080770 0.309006
v 1.100000 16.080770 0.000006
v 0.951100 12.630770 -0.308996
v 1.000000 12.630770 0.000004
v 0.500000 12.100000 0.000004
v 0.809000 12.630770 -0.587796
v 0.475500 12.100000 -0.154496
v 0.404500 12.100000 -0.293896
v -1.046200 14.488461 -0.339896
v -0.951100 14.488461 -0.308996
v -1.100000 14.488461 0.000004
v 0.587800 12.630770 0.809004
v 0.809000 12.630770 0.587804
v 0.809000 12.896153 0.587804
v 0.587800 12.896153 0.809004
v -1.000000 14.488461 0.000004
v -0.951100 14.488461 0.309004
v -1.046200 14.488461 0.339904
v 0.000000 13.957692 -0.999996
v 0.000000 13.957692 -1.099996
v -0.309000 13.957692 -0.951096
v 0.587800 13.957692 0.809004
v 0.809000 13.957692 0.587804
v 0.809000 14.488461 0.587804
v 0.587800 14.488461 0.809004
v -1.046200 16.080770 -0.339894
v -0.951100 16.080770 -0.308994
v -1.100000 16.080770 0.000006
v -1.000000 16.080770 0.000006
v -0.951100 16.080770 0.309006
v -1.046200 16.080770 0.339906
v 0.000000 12.630770 -0.999996
v -0.309000 12.630770 -0.951096
v -0.309000 12.896153 -0.951096
v 0.000000 12.896153 -0.999996
v -1.100000 19.000000 0.000006
v 0.889900 19.000000 -0.646594
v -1.046200 19.000000 -0.339894
v -0.951100 15.550000 0.309006
v -0.889900 15.550000 0.646606
v -0.809000 15.550000 0.587806
v -0.309000 14.488461 -0.951096
v 0.000000 14.488461 -0.999996
v 0.293900 12.100000 -0.404496
v 0.587800 12.630770 -0.808996
v -0.587800 12.896153 -0.808996
v -0.646600 12.896153 -0.889896
v -0.339900 12.896153 -1.046196
v 0.154500 12.100000 -0.475496
v 0.309000 12.630770 -0.951096
v -0.889900 19.000000 0.646606
v -0.646600 19.000000 0.889906
v 0.889900 19.000000 0.646606
v -0.587800 14.488461 -0.808996
v -0.646600 14.488461 -0.889896
v -1.046200 19.000000 0.339906
v 1.046200 19.000000 0.339906
v -0.339900 19.000000 1.046206
v 0.000000 19.000000 1.100006
v 0.646600 19.000000 0.889906
v 1.046200 19.000000 -0.339894
v 1.100000 19.000000 0.000006
v -0.646600 13.957692 -0.889896
v -0.587800 13.957692 -0.808996
v -0.809000 16.080770 0.587806
v -0.889900 16.080770 0.646606
v -0.587800 16.080770 0.809006
v -0.646600 16.080770 0.889906
v -0.587800 12.630770 -0.808996
v -1.000000 15.550000 0.000006
v -0.951100 15.550000 -0.308994
v -1.100000 15.550000 0.000006
v -1.046200 15.550000 0.339906
v -0.809000 12.896153 -0.587796
v -0.889900 12.896153 -0.646596
v -1.046200 15.550000 -0.339894
v -0.587800 15.550000 0.809006
v -0.646600 15.550000 0.889906
v -0.809000 14.488461 -0.587796
v -0.889900 14.488461 -0.646596
v -1.000000 13.957692 0.000004
v -0.951100 13.957692 -0.308996
v -1.100000 13.957692 0.000004
v -1.046200 13.957692 -0.339896
v -1.046200 13.957692 0.339904
v -0.951100 13.957692 0.309004
v -0.309000 16.080770 0.951106
v 0.000000 16.080770 1.000006
v 0.000000 16.080770 1.100006
v 0.646600 16.080770 0.889906
v 0.339900 19.000000 1.046206
v -0.309000 15.550000 0.951106
v -0.809000 13.957692 -0.587796
v -0.889900 13.957692 -0.646596
v -0.339900 12.896153 1.046204
v -0.309000 12.896153 0.951104
v 0.000000 12.896153 1.100004
v 0.000000 12.896153 1.000004
v 0.309000 12.896153 0.951104
v -0.809000 12.630770 -0.587796
v 0.000000 15.550000 1.000005
v -0.339900 14.488461 1.046204
v -0.309000 14.488461 0.951104
v 0.000000 14.488461 1.100004
v 0.000000 14.488461 1.000004
v 0.309000 14.488461 0.951104
v -0.339900 16.080770 1.046206
v 0.309000 16.080770 0.951106
v 1.000000 13.957692 0.000004
v 1.100000 13.957692 0.000004
v 0.951100 13.957692 -0.308996
v -0.951100 12.630770 -0.308996
v 0.951100 12.896153 -0.308996
v 1.000000 12.896153 0.000004
v 1.000000 15.550000 0.000006
v 1.100000 15.550000 0.000006
v 0.951100 15.550000 -0.308994
v 0.951100 14.488461 -0.308996
v 1.000000 14.488461 0.000004
v 1.046200 12.896153 -0.339896
v 0.889900 12.896153 -0.646596
v 0.809000 12.896153 -0.587796
v 0.339900 16.080770 1.046206
v 0.951100 16.080770 -0.308994
v 1.000000 16.080770 0.000006
v 1.046200 14.488461 -0.339896
v 0.889900 14.488461 -0.646596
v 0.809000 14.488461 -0.587796
v -1.000000 12.630770 0.000004
v 1.046200 15.550000 -0.339894
v 1.046200 16.080770 -0.339894
v 0.889900 16.080770 -0.646594
v 0.809000 16.080770 -0.587794
v 0.646600 16.080770 -0.889894
v 0.646600 19.000000 -0.889894
v 0.889900 13.957692 -0.646596
v 0.809000 13.957692 -0.587796
v 0.646600 12.896153 0.889904
v 0.339900 12.896153 1.046204
v 0.889900 15.550000 -0.646594
v 0.809000 15.550000 -0.587794
v 0.339900 15.550000 1.046206
v 0.309000 15.550000 0.951106
v 0.000000 15.550000 1.100006
v -0.339900 15.550000 1.046206
v 0.646600 14.488461 0.889904
v 0.339900 14.488461 1.046204
v 0.646600 14.488461 -0.889896
v 0.000000 13.957692 1.000004
v 0.000000 13.957692 1.100004
v 0.309000 13.957692 0.951104
v 0.339900 13.957692 1.046204
v 0.587800 12.896153 -0.808996
v 0.646600 12.896153 -0.889896
v 0.587800 16.080770 -0.808994
v 0.309000 12.630770 0.951104
v 0.000000 12.630770 1.000004
v 0.587800 14.488461 -0.808996
v 0.309000 14.488461 -0.951096
v -0.309000 13.957692 0.951104
v -0.339900 13.957692 1.046204
v 0.587800 15.550000 -0.808994
v 0.646600 15.550000 -0.889894
v 0.339900 15.550000 -1.046196
v 0.309000 15.550000 -0.951094
v 0.587800 13.957692 -0.808996
v 0.646600 13.957692 -0.889896
v 0.646600 13.957692 0.889904
v -0.404500 12.100000 -0.293896
v -0.293900 12.100000 -0.404496
v -0.475500 12.100000 -0.154496
v -0.154500 12.100000 -0.475496
v -0.500000 12.100000 0.000004
v 0.000000 12.100000 -0.499996
v -0.475500 12.100000 0.154504
v 0.000000 16.080770 -0.999994
v 0.000000 16.080770 -1.099994
v 0.309000 16.080770 -0.951094
v 0.000000 12.896153 -1.099996
v 0.309000 12.896153 -0.951096
v -0.404500 12.100000 0.293904
v 0.475500 12.100000 0.154504
v -0.293900 12.100000 0.404504
v -0.154500 12.100000 0.475504
v 0.000000 12.100000 0.500004
v 0.404500 12.100000 0.293904
v 0.154500 12.100000 0.475504
v 0.293900 12.100000 0.404504
v 0.000000 14.488461 -1.099996
v 0.339900 14.488461 -1.046196
v 0.951100 12.896153 0.309004
v 0.889900 12.896153 0.646604
v 0.000000 15.550000 -0.999994
v -0.339900 15.550000 -1.046196
v -0.646600 15.550000 -0.889894
v -0.309000 15.550000 -0.951094
v 0.000000 15.550000 -1.099995
v -0.587800 16.080770 -0.808994
v -0.646600 16.080770 -0.889894
v -0.309000 16.080770 -0.951094
v 0.889900 14.488461 0.646604
v 0.889900 15.550000 0.646606
v -0.339900 16.080770 -1.046194
v 0.889900 13.957692 0.646604
v -0.646600 19.000000 -0.889894
v 1.100000 14.488461 0.000004
v 0.951100 14.488461 0.309004
v -0.587800 15.550000 -0.808994
v 0.951100 13.957692 0.309004
v 0.951100 12.630770 0.309004
v 1.100000 12.896153 0.000004
v -0.809000 16.080770 -0.587794
v -0.889900 16.080770 -0.646594
v 0.951100 15.550000 0.309006
v 1.046200 15.550000 0.339906
v -0.889900 19.000000 -0.646594
v 1.046200 14.488461 0.339904
v -0.809000 15.550000 -0.587794
v -0.889900 15.550000 -0.646594
v -0.889900 12.896153 0.646604
v 1.046200 13.957692 -0.339896
v -0.889900 14.488461 0.646604
v 1.046200 13.957692 0.339904
v 1.046200 12.896153 0.339904
v 0.339900 12.896153 -1.046196
v -0.951100 12.630770 0.309004
v -0.809000 12.896153 0.587804
v 0.339900 16.080770 -1.046194
v -0.809000 14.488461 0.587804
v 0.587800 16.080770 0.809006
v 0.309000 13.957692 -0.951096
v 0.339900 13.957692 -1.046196
v -0.889900 13.957692 0.646604
v -0.646600 13.957692 0.889904
v -0.809000 13.957692 0.587804
v -0.809000 12.630770 0.587804
v 0.646600 15.550000 0.889906
v 0.587800 15.550000 0.809006
v -0.587800 12.896153 0.809004
v -0.646600 12.896153 0.889904
v -0.587800 12.630770 0.809004
v -0.587800 14.488461 0.809004
v -0.646600 14.488461 0.889904
v -0.309000 12.630770 0.951104
v -0.339900 14.488461 -1.046196
v 0.809000 16.080770 0.587806
v 0.889900 16.080770 0.646606
v -0.587800 13.957692 0.809004
v 0.000000 19.000000 -1.099994
v -0.339900 19.000000 -1.046194
v 0.809000 15.550000 0.587806
v 0.339900 19.000000 -1.046194
v -0.339900 13.957692 -1.046196
vn -0.7030 -0.6735 -0.2284
vn -0.6354 -0.7441 -0.2064
vn -0.7391 -0.6736 -0.0000
vn -0.6681 -0.7440 -0.0000
vn -0.6354 -0.7441 0.2064
vn -0.7030 -0.6735 0.2284
vn 0.7030 -0.6735 0.2284
vn 0.6354 -0.7441 0.2064
vn 0.7391 -0.6736 -0.0000
vn 0.8884 -0.3568 -0.2887
vn 0.9342 -0.3568 0.0000
vn 0.4288 -0.9034 0.0000
vn 0.7557 -0.3568 -0.5491
vn 0.4077 -0.9034 -0.1325
vn 0.3469 -0.9034 -0.2520
vn 0.5491 -0.3568 0.7557
vn 0.7557 -0.3568 0.5491
vn 0.5405 -0.7441 0.3927
vn 0.3927 -0.7441 0.5405
vn 0.0000 0.7440 -0.6681
vn 0.0000 0.6736 -0.7391
vn -0.2064 0.7441 -0.6354
vn 0.3927 0.7441 0.5405
vn 0.5405 0.7441 0.3927
vn 0.0000 -0.3568 -0.9342
vn -0.2887 -0.3568 -0.8884
vn -0.2064 -0.7441 -0.6354
vn -0.0000 -0.7440 -0.6681
vn -0.7391 0.6736 -0.0000
vn 0.5980 0.6735 -0.4345
vn -0.7030 0.6735 -0.2284
vn -0.6354 0.7441 0.2064
vn -0.5980 0.6735 0.4345
vn -0.5405 0.7441 0.3927
vn 0.2520 -0.9034 -0.3469
vn 0.5491 -0.3568 -0.7557
vn -0.3927 -0.7441 -0.5405
vn -0.4345 -0.6735 -0.5980
vn -0.2284 -0.6735 -0.7030
vn 0.1325 -0.9034 -0.4077
vn 0.2887 -0.3568 -0.8884
vn -0.4345 0.6735 0.5980
vn 0.5980 0.6735 0.4345
vn -0.7030 0.6735 0.2284
vn 0.7030 0.6735 0.2284
vn -0.2284 0.6735 0.7030
vn 0.0000 0.6736 0.7391
vn 0.4345 0.6735 0.5980
vn 0.7030 0.6735 -0.2284
vn 0.7391 0.6736 0.0000
vn -0.4345 0.6735 -0.5980
vn -0.3927 0.7441 -0.5405
vn -0.5405 -0.7441 0.3927
vn -0.5980 -0.6735 0.4345
vn -0.3927 -0.7441 0.5405
vn -0.4345 -0.6735 0.5980
vn -0.5491 -0.3568 -0.7557
vn -0.6681 0.7440 -0.0000
vn -0.6354 0.7441 -0.2064
vn -0.5405 -0.7441 -0.3927
vn -0.5980 -0.6735 -0.4345
vn -0.3927 0.7441 0.5405
vn -0.2064 -0.7441 0.6354
vn 0.0000 -0.7440 0.6681
vn 0.0000 -0.6736 0.7391
vn 0.4345 -0.6735 0.5980
vn 0.2284 0.6735 0.7030
vn -0.2064 0.7441 0.6354
vn -0.5405 0.7441 -0.3927
vn -0.5980 0.6735 -0.4345
vn -0.2284 -0.6735 0.7030
vn 0.2064 -0.7441 0.6354
vn -0.7557 -0.3568 -0.5491
vn 0.0000 0.7440 0.6681
vn 0.6681 0.7440 -0.0000
vn 0.6354 0.7441 -0.2064
vn -0.8884 -0.3568 -0.2887
vn 0.6354 -0.7441 -0.2064
vn 0.6681 -0.7440 0.0000
vn 0.7030 -0.6735 -0.2284
vn 0.5980 -0.6735 -0.4345
vn 0.5405 -0.7441 -0.3927
vn 0.2284 -0.6735 0.7030
vn -0.9342 -0.3568 -0.0000
vn 0.4345 -0.6735 -0.5980
vn 0.4345 0.6735 -0.5980
vn 0.5405 0.7441 -0.3927
vn 0.2064 0.7441 0.6354
vn 0.3927 -0.7441 -0.5405
vn 0.2887 -0.3568 0.8884
vn -0.0000 -0.3568 0.9342
vn 0.2064 -0.7441 -0.6354
vn 0.3927 0.7441 -0.5405
vn 0.2284 0.6735 -0.7030
vn 0.2064 0.7441 -0.6354
vn -0.3469 -0.9034 -0.2520
vn -0.2520 -0.9034 -0.3469
vn -0.4077 -0.9034 -0.1325
vn -0.1325 -0.9034 -0.4077
vn -0.4288 -0.9034 -0.0000
vn 0.0000 -0.9034 -0.4288
vn -0.4077 -0.9034 0.1325
vn -0.0000 -0.6736 -0.7391
vn -0.3469 -0.9034 0.2520
vn 0.4077 -0.9034 0.1325
vn -0.2520 -0.9034 0.3469
vn -0.1325 -0.9034 0.4077
vn -0.0000 -0.9034 0.4288
vn 0.3469 -0.9034 0.2520
vn 0.1325 -0.9034 0.4077
vn 0.2520 -0.9034 0.3469
vn 0.2284 -0.6735 -0.7030
vn 0.5980 -0.6735 0.4345
vn -0.2284 0.6735 -0.7030
vn 0.6354 0.7441 0.2064
vn 0.8884 -0.3568 0.2887
vn -0.8884 -0.3568 0.2887
vn -0.7557 -0.3568 0.5491
vn -0.5491 -0.3568 0.7557
vn -0.2887 -0.3568 0.8884
usemtl Default_OBJ.003
s 1
f 1//1 2//2 3//3
f 4//4 5//5 3//3
f 6//6 3//3 5//5
f 7//7 8//8 9//9
f 10//10 11//11 12//12
f 13//13 10//10 14//14
f 15//15 13//13 14//14
f 16//1 17//2 18//3
f 19//16 20//17 21//18
f 19//16 21//18 22//19
f 23//4 24//5 18//3
f 25//6 18//3 24//5
f 26//20 27//21 28//22
f 29//23 30//24 31//18
f 29//23 31//18 32//19
f 33//1 34//2 35//3
f 36//4 37//5 35//3
f 38//6 35//3 37//5
f 39//25 40//26 41//27
f 39//25 41//27 42//28
f 43//29 44//30 45//31
f 46//32 47//33 48//34
f 26//20 28//22 49//27
f 26//20 49//27 50//28
f 15//15 51//35 52//36
f 15//15 52//36 13//13
f 53//37 54//38 41//27
f 55//39 41//27 54//38
f 56//40 57//41 51//35
f 45//31 35//3 43//29
f 58//33 59//42 60//43
f 49//27 61//37 62//38
f 63//44 43//29 38//6
f 35//3 38//6 43//29
f 57//41 52//36 51//35
f 60//43 64//45 63//44
f 63//44 58//33 60//43
f 65//46 66//47 60//43
f 60//43 66//47 67//48
f 68//49 43//29 69//50
f 33//1 35//3 45//31
f 28//22 70//51 71//52
f 46//32 48//34 72//53
f 46//32 72//53 37//5
f 70//51 55//39 54//38
f 73//54 74//55 75//56
f 72//53 74//55 73//54
f 40//26 76//57 53//37
f 40//26 53//37 41//27
f 77//58 78//59 79//29
f 28//22 71//52 61//37
f 28//22 61//37 49//27
f 80//44 46//32 79//29
f 54//38 81//60 82//61
f 53//37 81//60 54//38
f 81//60 2//2 82//61
f 16//1 18//3 79//29
f 16//1 79//29 83//31
f 48//34 47//33 84//62
f 47//33 85//42 84//62
f 79//29 18//3 25//6
f 79//29 25//6 80//44
f 62//38 86//60 87//61
f 61//37 86//60 62//38
f 86//60 17//2 87//61
f 88//58 89//59 90//29
f 91//31 90//29 89//59
f 48//34 84//62 74//55
f 48//34 74//55 72//53
f 83//31 87//61 16//1
f 92//44 93//32 90//29
f 75//56 74//55 94//63
f 95//64 96//65 94//63
f 97//66 67//48 98//67
f 1//1 3//3 90//29
f 1//1 90//29 91//31
f 84//62 85//42 99//68
f 71//52 70//51 100//69
f 70//51 101//70 100//69
f 91//31 89//59 101//70
f 100//69 101//70 89//59
f 90//29 3//3 6//6
f 90//29 6//6 92//44
f 84//62 99//68 94//63
f 84//62 94//63 74//55
f 82//61 101//70 54//38
f 70//51 54//38 101//70
f 97//66 60//43 67//48
f 82//61 1//1 91//31
f 82//61 91//31 101//70
f 102//71 103//63 104//65
f 105//64 106//72 104//65
f 76//57 107//73 81//60
f 76//57 81//60 53//37
f 99//68 108//74 95//64
f 99//68 95//64 94//63
f 109//71 110//63 111//65
f 112//64 113//72 111//65
f 71//52 100//69 86//60
f 71//52 86//60 61//37
f 63//44 38//6 58//33
f 1//1 82//61 2//2
f 4//4 3//3 2//2
f 114//71 94//63 96//65
f 75//56 94//63 114//71
f 95//64 115//72 96//65
f 16//1 87//61 17//2
f 23//4 18//3 17//2
f 59//42 58//33 75//56
f 73//54 75//56 58//33
f 98//67 67//48 66//47
f 65//46 60//43 59//42
f 116//75 117//50 118//76
f 2//2 81//60 119//77
f 107//73 119//77 81//60
f 100//69 89//59 17//2
f 100//69 17//2 86//60
f 11//11 10//10 120//78
f 11//11 120//78 121//79
f 75//56 114//71 59//42
f 65//46 59//42 114//71
f 122//75 123//50 124//76
f 116//75 118//76 125//78
f 116//75 125//78 126//79
f 66//47 65//46 114//71
f 127//80 120//78 128//81
f 129//82 128//81 120//78
f 130//83 98//67 96//65
f 66//47 96//65 98//67
f 122//75 124//76 131//78
f 122//75 131//78 132//79
f 133//80 125//78 134//81
f 135//82 134//81 125//78
f 97//66 98//67 130//83
f 119//77 136//84 4//4
f 119//77 4//4 2//2
f 137//49 133//80 134//81
f 138//80 131//78 139//81
f 140//82 139//81 131//78
f 68//49 139//81 44//30
f 89//59 88//58 23//4
f 89//59 23//4 17//2
f 96//65 66//47 114//71
f 139//81 141//85 142//86
f 118//76 143//30 144//87
f 145//66 146//83 106//72
f 146//83 104//65 106//72
f 143//30 127//80 128//81
f 124//76 147//30 148//87
f 149//67 150//88 151//47
f 108//74 99//68 151//47
f 152//46 151//47 99//68
f 152//46 99//68 85//42
f 153//66 154//83 113//72
f 154//83 111//65 113//72
f 134//81 147//30 137//49
f 151//47 111//65 154//83
f 151//47 154//83 149//67
f 134//81 155//85 147//30
f 10//10 13//13 129//82
f 10//10 129//82 120//78
f 154//83 153//66 149//67
f 156//74 157//47 158//88
f 124//76 148//87 140//82
f 124//76 140//82 131//78
f 118//76 144//87 135//82
f 118//76 135//82 125//78
f 159//67 146//83 145//66
f 109//71 152//46 85//42
f 111//65 151//47 152//46
f 111//65 152//46 109//71
f 128//81 160//89 161//85
f 129//82 160//89 128//81
f 139//81 162//89 141//85
f 140//82 162//89 139//81
f 163//90 106//72 105//64
f 163//90 105//64 164//91
f 44//30 139//81 142//86
f 165//89 166//92 155//85
f 134//81 165//89 155//85
f 135//82 165//89 134//81
f 159//67 158//88 157//47
f 156//74 167//68 157//47
f 168//46 157//47 167//68
f 158//88 113//72 112//64
f 158//88 112//64 156//74
f 157//47 104//65 146//83
f 157//47 146//83 159//67
f 106//72 22//19 145//66
f 148//87 147//30 169//93
f 147//30 170//86 169//93
f 171//94 172//95 170//86
f 113//72 32//19 153//66
f 147//30 155//85 170//86
f 104//65 157//47 168//46
f 104//65 168//46 102//71
f 144//87 143//30 173//93
f 143//30 174//86 173//93
f 155//85 171//94 170//86
f 143//30 128//81 161//85
f 143//30 161//85 174//86
f 148//87 169//93 162//89
f 148//87 162//89 140//82
f 159//67 175//48 158//88
f 29//23 158//88 175//48
f 159//67 145//66 175//48
f 176//96 177//97 178//98
f 177//97 179//99 178//98
f 180//100 178//98 179//99
f 180//100 179//99 181//101
f 180//100 181//101 56//40
f 51//35 182//102 56//40
f 15//15 182//102 51//35
f 14//14 182//102 15//15
f 12//12 182//102 14//14
f 183//28 184//103 185//92
f 162//89 185//92 141//85
f 13//13 52//36 160//89
f 13//13 160//89 129//82
f 144//87 173//93 165//89
f 144//87 165//89 135//82
f 163//90 19//16 22//19
f 163//90 22//19 106//72
f 169//93 172//95 185//92
f 169//93 185//92 162//89
f 42//28 186//103 187//92
f 160//89 187//92 161//85
f 158//88 29//23 32//19
f 158//88 32//19 113//72
f 188//104 189//105 190//106
f 182//102 189//105 188//104
f 191//107 190//106 189//105
f 180//100 56//40 182//102
f 12//12 189//105 182//102
f 192//108 191//107 189//105
f 193//109 194//110 189//105
f 195//111 194//110 193//109
f 192//108 189//105 194//110
f 50//28 196//103 166//92
f 197//112 155//85 166//92
f 198//8 199//113 21//18
f 199//113 145//66 21//18
f 22//19 21//18 145//66
f 172//95 200//20 183//28
f 172//95 183//28 185//92
f 201//114 202//51 203//22
f 200//20 204//21 203//22
f 14//14 10//10 12//12
f 205//37 206//38 207//27
f 153//66 31//18 208//113
f 32//19 31//18 153//66
f 209//43 153//66 208//113
f 203//22 207//27 183//28
f 203//22 183//28 200//20
f 69//50 63//44 64//45
f 210//39 207//27 206//38
f 29//23 175//48 30//24
f 30//24 175//48 211//43
f 39//25 57//41 56//40
f 175//48 145//66 199//113
f 175//48 199//113 211//43
f 210//39 206//38 212//51
f 181//101 39//25 56//40
f 64//45 60//43 7//7
f 69//50 64//45 7//7
f 179//99 40//26 181//101
f 126//79 213//9 214//8
f 31//18 214//8 208//113
f 215//52 203//22 202//51
f 9//9 138//80 68//49
f 9//9 68//49 69//50
f 30//24 211//43 216//115
f 139//81 68//49 138//80
f 201//114 62//38 202//51
f 40//26 39//25 181//101
f 198//8 21//18 217//116
f 20//17 217//116 21//18
f 76//57 40//26 179//99
f 69//50 7//7 9//9
f 203//22 215//52 205//37
f 203//22 205//37 207//27
f 30//24 216//115 214//8
f 30//24 214//8 31//18
f 177//97 76//57 179//99
f 147//30 124//76 137//49
f 123//50 137//49 124//76
f 121//79 218//9 198//8
f 177//97 176//96 107//73
f 177//97 107//73 76//57
f 206//38 219//60 220//61
f 205//37 219//60 206//38
f 219//60 34//2 220//61
f 122//75 221//115 123//50
f 222//45 123//50 221//115
f 223//70 212//51 220//61
f 206//38 220//61 212//51
f 178//98 119//77 176//96
f 137//49 123//50 133//80
f 213//9 133//80 123//50
f 217//116 11//11 121//79
f 217//116 121//79 198//8
f 223//70 220//61 45//31
f 33//1 45//31 220//61
f 224//7 222//45 208//113
f 107//73 176//96 119//77
f 216//115 116//75 126//79
f 216//115 126//79 214//8
f 215//52 202//51 225//69
f 202//51 226//70 225//69
f 83//31 78//59 226//70
f 123//50 222//45 213//9
f 224//7 213//9 222//45
f 136//84 119//77 178//98
f 227//54 6//6 5//5
f 143//30 118//76 228//49
f 117//50 228//49 118//76
f 202//51 62//38 87//61
f 202//51 87//61 226//70
f 136//84 178//98 180//100
f 229//54 25//6 24//5
f 116//75 216//115 117//50
f 230//45 117//50 216//115
f 230//45 216//115 211//43
f 87//61 83//31 226//70
f 194//110 163//90 192//108
f 228//49 117//50 127//80
f 218//9 127//80 117//50
f 229//54 47//33 25//6
f 215//52 225//69 219//60
f 215//52 219//60 205//37
f 143//30 228//49 127//80
f 88//58 90//29 93//32
f 211//43 199//113 231//7
f 211//43 231//7 230//45
f 33//1 220//61 34//2
f 36//4 35//3 34//2
f 163//90 164//91 192//108
f 227//54 92//44 6//6
f 117//50 230//45 218//9
f 231//7 218//9 230//45
f 19//16 163//90 194//110
f 225//69 226//70 78//59
f 195//111 19//16 194//110
f 225//69 78//59 34//2
f 225//69 34//2 219//60
f 232//112 187//92 186//103
f 161//85 187//92 232//112
f 42//28 41//27 186//103
f 4//4 136//84 5//5
f 233//117 5//5 136//84
f 193//109 20//17 19//16
f 193//109 19//16 195//111
f 93//32 24//5 23//4
f 93//32 23//4 88//58
f 197//112 166//92 196//103
f 50//28 49//27 196//103
f 83//31 79//29 78//59
f 189//105 217//116 193//109
f 5//5 234//53 227//54
f 78//59 77//58 36//4
f 78//59 36//4 34//2
f 184//103 207//27 210//39
f 235//112 185//92 184//103
f 141//85 185//92 235//112
f 183//28 207//27 184//103
f 24//5 236//53 229//54
f 20//17 193//109 217//116
f 237//19 97//66 115//72
f 130//83 96//65 115//72
f 11//11 217//116 189//105
f 108//74 151//47 150//88
f 11//11 189//105 12//12
f 173//93 174//86 238//95
f 174//86 239//94 238//95
f 240//33 241//42 242//34
f 92//44 240//33 93//32
f 242//34 93//32 240//33
f 92//44 227//54 240//33
f 182//102 233//117 180//100
f 57//41 187//92 52//36
f 187//92 160//89 52//36
f 241//42 240//33 227//54
f 150//88 115//72 95//64
f 150//88 95//64 108//74
f 173//93 238//95 166//92
f 173//93 166//92 165//89
f 130//83 115//72 97//66
f 233//117 243//118 234//53
f 233//117 234//53 5//5
f 233//117 136//84 180//100
f 93//32 242//34 236//53
f 93//32 236//53 24//5
f 243//118 233//117 182//102
f 188//104 243//118 182//102
f 149//67 244//48 150//88
f 245//23 150//88 244//48
f 227//54 246//55 247//56
f 234//53 246//55 227//54
f 246//55 103//63 247//56
f 57//41 39//25 42//28
f 57//41 42//28 187//92
f 190//106 248//119 243//118
f 190//106 243//118 188//104
f 244//48 149//67 153//66
f 238//95 26//20 50//28
f 238//95 50//28 166//92
f 229//54 249//55 250//56
f 236//53 249//55 229//54
f 249//55 110//63 250//56
f 153//66 209//43 244//48
f 55//39 186//103 41//27
f 191//107 251//120 190//106
f 47//33 229//54 250//56
f 47//33 250//56 85//42
f 150//88 245//23 237//19
f 150//88 237//19 115//72
f 252//39 196//103 49//27
f 62//38 252//39 49//27
f 109//71 85//42 250//56
f 253//18 8//8 254//113
f 97//66 253//18 254//113
f 237//19 253//18 97//66
f 251//120 248//119 190//106
f 97//66 254//113 60//43
f 164//91 251//120 191//107
f 242//34 241//42 255//62
f 168//46 167//68 241//42
f 255//62 241//42 167//68
f 241//42 227//54 247//56
f 254//113 7//7 60//43
f 164//91 191//107 192//108
f 256//21 210//39 257//114
f 241//42 247//56 168//46
f 102//71 168//46 247//56
f 121//79 120//78 218//9
f 127//80 218//9 120//78
f 245//23 244//48 258//24
f 244//48 209//43 258//24
f 209//43 222//45 221//115
f 210//39 212//51 257//114
f 231//7 198//8 218//9
f 199//113 198//8 231//7
f 243//118 248//119 246//55
f 243//118 246//55 234//53
f 235//112 259//94 141//85
f 142//86 141//85 259//94
f 126//79 125//78 213//9
f 133//80 213//9 125//78
f 242//34 255//62 249//55
f 242//34 249//55 236//53
f 208//113 222//45 209//43
f 256//21 259//94 184//103
f 235//112 184//103 259//94
f 102//71 247//56 103//63
f 105//64 104//65 103//63
f 224//7 214//8 213//9
f 208//113 214//8 224//7
f 245//23 258//24 253//18
f 245//23 253//18 237//19
f 184//103 210//39 256//21
f 109//71 250//56 110//63
f 112//64 111//65 110//63
f 132//79 131//78 9//9
f 138//80 9//9 131//78
f 7//7 254//113 8//8
f 258//24 209//43 221//115
f 258//24 221//115 8//8
f 258//24 8//8 253//18
f 246//55 248//119 103//63
f 251//120 103//63 248//119
f 204//21 201//114 203//22
f 204//21 200//20 172//95
f 169//93 170//86 172//95
f 204//21 172//95 171//94
f 132//79 9//9 8//8
f 255//62 167//68 110//63
f 255//62 110//63 249//55
f 155//85 197//112 171//94
f 221//115 122//75 132//79
f 221//115 132//79 8//8
f 72//53 73//54 37//5
f 197//112 196//103 204//21
f 197//112 204//21 171//94
f 196//103 252//39 201//114
f 196//103 201//114 204//21
f 80//44 47//33 46//32
f 77//58 79//29 46//32
f 80//44 25//6 47//33
f 62//38 201//114 252//39
f 46//32 37//5 36//4
f 46//32 36//4 77//58
f 164//91 105//64 103//63
f 164//91 103//63 251//120
f 38//6 37//5 73//54
f 73//54 58//33 38//6
f 70//51 28//22 260//114
f 27//21 260//114 28//22
f 26//20 238//95 27//21
f 27//21 238//95 239//94
f 167//68 156//74 112//64
f 167//68 112//64 110//63
f 232//112 239//94 161//85
f 174//86 161//85 239//94
f 232//112 186//103 27//21
f 232//112 27//21 239//94
f 186//103 55//39 260//114
f 186//103 260//114 27//21
f 70//51 260//114 55//39
f 256//21 257//114 142//86
f 259//94 256//21 142//86
f 45//31 44//30 223//70
f 212//51 223//70 44//30
f 44//30 142//86 212//51
f 44//30 43//29 68//49
f 63//44 69//50 43//29
f 212//51 142//86 257//114
