# Blender v3.1.2 OBJ File: ''
# www.blender.org
mtllib untitled.mtl
o Shiny_Snaget_(1)_Shiny_Snaget_(1).001
v -0.242700 9.020000 -0.176298
v -0.176300 9.020000 -0.242698
v -0.285300 9.020000 -0.092698
v -0.300000 9.020000 0.000002
v -0.092700 9.020000 -0.285298
v 0.000000 9.020000 -0.299998
v 0.092700 9.020000 -0.285298
v 0.176300 9.020000 -0.242698
v -0.285300 9.020000 0.092702
v 0.242700 9.020000 -0.176298
v 0.285300 9.020000 -0.092698
v -0.242700 9.020000 0.176302
v 0.300000 9.020000 0.000002
v -0.176300 9.020000 0.242702
v 0.285300 9.020000 0.092702
v 0.242700 9.020000 0.176302
v -0.092700 9.020000 0.285302
v 0.000000 9.020000 0.300002
v 0.176300 9.020000 0.242702
v 0.092700 9.020000 0.285302
v -0.242700 19.020000 -0.176294
v 0.285300 19.020000 0.092706
v -0.176300 19.020000 -0.242694
v 0.300000 19.020000 0.000006
v 0.285300 19.020000 -0.092694
v -0.285300 19.020000 -0.092694
v -0.300000 19.020000 0.000006
v 0.242700 19.020000 -0.176294
v -0.092700 19.020000 -0.285294
v 0.000000 19.020000 -0.299994
v 0.176300 19.020000 -0.242694
v 0.092700 19.020000 -0.285294
v -0.285300 19.020000 0.092706
v -0.242700 19.020000 0.176306
v -0.176300 19.020000 0.242706
v -0.092700 19.020000 0.285306
v 0.000000 19.020000 0.300006
v 0.092700 19.020000 0.285306
v 0.176300 19.020000 0.242706
v 0.242700 19.020000 0.176306
vn -0.5980 -0.6735 -0.4345
vn -0.4345 -0.6735 -0.5980
vn -0.7029 -0.6736 -0.2285
vn -0.7392 -0.6735 0.0000
vn -0.2285 -0.6736 -0.7029
vn 0.0000 -0.6735 -0.7392
vn 0.2285 -0.6735 -0.7029
vn 0.4345 -0.6735 -0.5980
vn -0.7029 -0.6735 0.2285
vn 0.5980 -0.6735 -0.4345
vn 0.7029 -0.6735 -0.2285
vn -0.5980 -0.6735 0.4345
vn 0.7392 -0.6735 -0.0000
vn -0.4345 -0.6735 0.5980
vn 0.7029 -0.6735 0.2285
vn 0.5980 -0.6735 0.4345
vn -0.2285 -0.6735 0.7029
vn -0.0000 -0.6735 0.7392
vn 0.4345 -0.6735 0.5980
vn 0.2285 -0.6735 0.7029
vn -0.5980 0.6735 -0.4345
vn 0.7029 0.6736 0.2285
vn -0.4345 0.6735 -0.5980
vn 0.7392 0.6735 -0.0000
vn 0.7029 0.6735 -0.2285
vn -0.7029 0.6736 -0.2285
vn -0.7392 0.6735 0.0000
vn 0.5980 0.6735 -0.4345
vn -0.2285 0.6735 -0.7029
vn 0.0000 0.6735 -0.7392
vn 0.4345 0.6735 -0.5980
vn 0.2285 0.6735 -0.7029
vn -0.7029 0.6736 0.2285
vn -0.5980 0.6735 0.4345
vn -0.4345 0.6735 0.5980
vn -0.2285 0.6735 0.7030
vn 0.0000 0.6735 0.7392
vn 0.2285 0.6735 0.7029
vn 0.4345 0.6736 0.5980
vn 0.5980 0.6735 0.4345
usemtl Default_OBJ.007
s 1
f 1//1 2//2 3//3
f 4//4 3//3 2//2
f 4//4 2//2 5//5
f 4//4 5//5 6//6
f 4//4 6//6 7//7
f 8//8 9//9 7//7
f 10//10 9//9 8//8
f 11//11 12//12 10//10
f 13//13 14//14 11//11
f 12//12 11//11 14//14
f 13//13 15//15 14//14
f 9//9 10//10 12//12
f 4//4 7//7 9//9
f 15//15 16//16 14//14
f 17//17 14//14 16//16
f 18//18 17//17 16//16
f 19//19 20//20 16//16
f 18//18 16//16 20//20
f 21//21 22//22 23//23
f 24//24 25//25 23//23
f 26//26 22//22 21//21
f 27//27 22//22 26//26
f 25//25 28//28 23//23
f 29//29 23//23 28//28
f 30//30 29//29 28//28
f 31//31 32//32 28//28
f 30//30 28//28 32//32
f 24//24 23//23 22//22
f 22//22 27//27 33//33
f 22//22 33//33 34//34
f 22//22 34//34 35//35
f 22//22 35//35 36//36
f 22//22 36//36 37//37
f 22//22 37//37 38//38
f 22//22 38//38 39//39
f 22//22 39//39 40//40
f 33//33 4//4 9//9
f 9//9 34//34 33//33
f 13//13 25//25 24//24
f 8//8 32//32 31//31
f 24//24 15//15 13//13
f 32//32 7//7 6//6
f 37//37 18//18 20//20
f 37//37 20//20 38//38
f 20//20 39//39 38//38
f 22//22 40//40 15//15
f 25//25 11//11 10//10
f 31//31 10//10 8//8
f 29//29 6//6 5//5
f 5//5 23//23 29//29
f 8//8 7//7 32//32
f 1//1 21//21 23//23
f 1//1 26//26 21//21
f 23//23 5//5 2//2
f 26//26 3//3 4//4
f 23//23 2//2 1//1
f 39//39 19//19 16//16
f 26//26 1//1 3//3
f 39//39 20//20 19//19
f 32//32 6//6 30//30
f 34//34 9//9 12//12
f 30//30 6//6 29//29
f 12//12 14//14 34//34
f 26//26 4//4 27//27
f 16//16 40//40 39//39
f 16//16 15//15 40//40
f 15//15 24//24 22//22
f 27//27 4//4 33//33
f 36//36 14//14 17//17
f 10//10 28//28 25//25
f 14//14 35//35 34//34
f 14//14 36//36 35//35
f 17//17 18//18 36//36
f 37//37 36//36 18//18
f 31//31 28//28 10//10
f 25//25 13//13 11//11
